{"glyphs":{"0":{"ha":856,"x_min":51,"x_max":796,"o":"m 103 453 q 195 158 101 279 q 420 35 289 36 q 647 155 551 33 q 744 450 743 276 q 675 717 744 589 q 576 826 640 783 q 435 868 511 868 q 302 840 358 868 q 210 769 246 813 q 150 668 174 725 q 103 453 103 560 m 420 -11 q 346 -10 420 -11 q 161 121 272 -10 q 51 457 50 251 q 160 789 53 663 q 426 914 267 915 q 692 785 586 913 q 796 451 797 657 q 681 117 794 246 q 420 -11 568 -12 z "},"1":{"ha":351,"x_min":47,"x_max":229,"o":"m 47 758 l 47 808 l 229 914 l 229 0 l 178 0 l 178 833 l 47 758 z "},"2":{"ha":693,"x_min":68,"x_max":635,"o":"m 174 504 l 138 471 q 68 653 68 543 q 135 839 68 764 q 318 914 203 914 q 503 837 433 914 q 572 642 572 760 q 494 400 572 535 q 404 276 467 351 q 308 164 342 200 l 196 46 l 635 46 l 635 0 l 74 0 l 189 117 l 289 224 q 437 408 385 326 q 505 535 489 489 q 521 625 521 582 q 459 810 521 751 q 331 868 397 868 q 223 846 265 868 q 160 789 181 824 q 119 642 119 722 q 174 504 119 561 z "},"3":{"ha":763,"x_min":143,"x_max":654,"o":"m 256 533 l 507 857 l 190 857 l 190 903 l 592 903 l 356 597 q 564 515 474 597 q 654 295 654 432 q 565 74 654 158 q 353 -11 475 -11 q 143 71 232 -11 l 178 108 q 356 35 249 35 q 533 110 464 35 q 603 298 603 186 q 531 481 603 410 q 356 551 458 551 q 256 533 304 551 z "},"4":{"ha":707,"x_min":51,"x_max":694,"o":"m 51 254 l 560 914 l 560 300 l 694 300 l 694 254 l 560 254 l 560 0 l 508 0 l 508 254 l 51 254 m 508 769 l 149 300 l 508 300 l 508 769 z "},"5":{"ha":754,"x_min":143,"x_max":654,"o":"m 194 499 l 194 903 l 611 903 l 611 857 l 246 857 l 246 578 q 356 597 293 597 q 564 515 474 597 q 654 295 654 432 q 565 74 654 158 q 353 -11 475 -11 q 143 71 232 -11 l 178 108 q 356 35 249 35 q 533 110 464 35 q 603 298 603 186 q 531 481 603 410 q 361 551 458 551 q 194 499 264 551 z "},"6":{"ha":722,"x_min":69,"x_max":642,"o":"m 69 274 q 99 427 69 351 q 169 560 129 503 q 278 682 210 617 q 399 788 347 747 q 529 885 450 828 l 558 847 q 181 494 303 678 q 354 556 260 556 q 557 474 472 556 q 642 274 642 392 q 557 72 642 156 q 354 -11 472 -11 q 153 72 236 -11 q 69 274 69 156 m 352 510 q 303 510 352 510 q 188 441 254 510 q 121 274 121 372 q 188 106 121 176 q 352 35 256 35 q 519 106 449 35 q 590 274 590 176 q 520 440 590 371 q 352 510 450 510 z "},"7":{"ha":651,"x_min":19,"x_max":579,"o":"m 19 857 l 19 903 l 579 903 l 174 0 l 122 0 l 510 857 l 19 857 z "},"8":{"ha":708,"x_min":69,"x_max":642,"o":"m 149 710 q 208 854 149 794 q 352 914 268 914 q 496 854 436 914 q 556 710 556 794 q 528 610 556 656 q 454 538 500 564 q 590 436 538 508 q 642 274 642 364 q 557 72 642 156 q 354 -11 472 -11 q 153 72 236 -11 q 69 274 69 156 q 119 434 69 363 q 251 536 169 506 q 176 608 204 563 q 149 710 149 654 m 352 510 q 303 510 352 510 q 188 441 254 510 q 121 274 121 372 q 188 106 121 176 q 352 35 256 35 q 519 106 449 35 q 590 274 590 176 q 520 440 590 371 q 352 510 450 510 m 354 868 q 322 868 354 868 q 245 820 290 868 q 200 708 200 772 q 244 599 200 643 q 353 556 289 556 q 461 599 418 556 q 504 707 504 642 q 461 820 504 772 q 354 868 418 868 z "},"9":{"ha":729,"x_min":69,"x_max":642,"o":"m 642 600 q 612 447 642 522 q 542 314 582 371 q 433 192 501 257 q 313 86 364 126 q 182 -11 261 46 l 153 26 q 531 379 408 196 q 357 318 451 318 q 154 400 239 318 q 69 600 69 482 q 154 801 69 718 q 357 885 239 885 q 558 801 475 885 q 642 600 642 718 m 359 364 q 408 364 359 364 q 524 433 457 364 q 590 599 590 501 q 523 768 590 697 q 359 839 456 839 q 192 768 263 839 q 121 600 121 697 q 191 433 121 503 q 359 364 261 364 z "}," ":{"ha":417,"x_min":0,"x_max":0,"o":""},"!":{"ha":279,"x_min":94,"x_max":182,"o":"m 114 231 l 114 1042 l 163 1042 l 163 231 l 114 231 m 182 67 q 182 58 182 67 q 169 36 182 49 q 138 24 156 24 q 108 36 121 24 q 94 67 94 49 q 108 99 94 86 q 139 113 122 113 q 169 99 156 113 q 182 67 182 86 z "},"\"":{"ha":417,"x_min":88,"x_max":324,"o":"m 88 656 l 88 1000 l 139 1000 l 133 656 l 88 656 m 272 656 l 272 1000 l 324 1000 l 318 656 l 272 656 z "},"#":{"ha":793,"x_min":39,"x_max":717,"o":"m 417 0 l 451 299 l 244 299 l 210 0 l 161 0 l 196 299 l 39 299 l 44 344 l 201 344 l 226 550 l 71 550 l 75 599 l 232 599 l 268 893 l 317 893 l 281 599 l 488 599 l 524 893 l 572 893 l 536 599 l 717 599 l 713 550 l 531 550 l 506 344 l 686 344 l 681 299 l 500 299 l 465 0 l 417 0 m 275 550 l 250 344 l 457 344 l 482 550 l 275 550 z "},"$":{"ha":788,"x_min":103,"x_max":672,"o":"m 590 894 l 558 853 q 403 926 488 917 l 403 526 q 496 492 460 508 q 578 444 532 476 q 672 263 672 382 q 595 71 672 144 q 403 -10 518 -3 l 403 -94 l 351 -94 l 351 -10 q 103 115 213 0 l 139 153 q 351 39 238 49 l 351 488 l 350 489 q 133 718 142 551 q 184 891 128 814 q 351 976 240 968 l 351 1061 l 403 1061 l 403 976 q 590 894 501 969 m 403 472 l 403 40 q 557 107 493 49 q 621 258 621 165 q 553 398 621 350 q 403 472 485 446 m 229 863 q 208 835 229 863 q 186 732 186 807 q 229 615 186 657 q 350 544 272 572 q 351 543 350 543 l 351 926 q 229 863 272 918 z "},"%":{"ha":1008,"x_min":146,"x_max":868,"o":"m 281 0 l 694 694 l 743 694 l 329 0 l 281 0 m 460 540 q 460 507 460 540 q 413 430 460 475 q 302 385 367 385 q 192 430 238 385 q 146 540 146 475 q 192 649 146 604 q 302 694 238 694 q 413 649 367 694 q 460 540 460 604 m 226 461 q 241 445 226 461 q 303 429 256 429 q 378 461 350 429 q 407 541 407 493 q 378 619 407 589 q 303 650 350 650 q 226 619 256 650 q 197 541 197 589 q 226 461 197 493 m 868 155 q 868 123 868 155 q 822 45 868 90 q 710 0 775 0 q 600 45 646 0 q 554 155 554 90 q 600 265 554 219 q 710 310 646 310 q 822 265 775 310 q 868 155 868 219 m 635 76 q 649 60 635 76 q 711 44 664 44 q 787 76 758 44 q 815 156 815 108 q 787 235 815 204 q 711 265 758 265 q 635 235 664 265 q 606 156 606 204 q 635 76 606 108 z "},"&":{"ha":972,"x_min":146,"x_max":821,"o":"m 751 1 l 710 -26 l 633 96 q 417 -12 553 -12 q 225 67 304 -12 q 146 253 146 147 q 210 435 146 360 q 371 526 275 511 l 272 689 q 234 863 218 771 q 338 1008 250 956 q 631 979 464 1086 l 613 944 q 533 983 568 969 q 450 997 499 997 q 361 972 401 997 q 279 856 290 928 q 314 715 268 783 l 629 200 q 638 260 638 226 l 638 357 q 667 488 638 454 q 756 521 697 521 l 821 521 l 821 471 l 760 471 q 701 445 715 471 q 688 332 688 419 l 688 260 q 664 144 688 193 l 751 1 m 417 33 q 607 140 546 33 l 397 483 q 253 415 308 478 q 197 258 197 351 q 259 99 197 164 q 417 33 321 33 z "},"'":{"ha":178,"x_min":88,"x_max":139,"o":"m 88 656 l 88 1000 l 139 1000 l 133 656 l 88 656 z "},"(":{"ha":554,"x_min":189,"x_max":454,"o":"m 255 44 q 222 127 255 44 q 189 406 189 211 q 255 767 189 600 q 418 1038 321 935 l 454 1006 q 302 746 364 903 q 240 406 240 589 q 302 65 240 222 q 454 -194 364 -92 l 418 -226 q 255 44 321 -124 z "},")":{"ha":556,"x_min":139,"x_max":404,"o":"m 338 762 q 371 678 338 762 q 404 400 404 594 q 338 38 404 206 q 175 -232 272 -129 l 139 -200 q 291 60 229 -97 q 353 400 353 217 q 291 740 353 583 q 139 1000 229 897 l 175 1032 q 338 762 272 929 z "},"*":{"ha":465,"x_min":47,"x_max":417,"o":"m 392 679 l 254 757 l 253 603 l 207 603 l 207 757 l 74 681 l 47 726 l 181 800 l 47 878 l 74 924 l 207 843 l 207 1000 l 258 1000 l 256 843 l 394 919 l 417 879 l 279 800 l 415 719 l 392 679 z "},"+":{"ha":754,"x_min":119,"x_max":619,"o":"m 346 71 l 346 299 l 119 299 l 119 344 l 346 344 l 346 571 l 392 571 l 392 344 l 619 344 l 619 299 l 392 299 l 392 71 l 346 71 z "},",":{"ha":278,"x_min":32,"x_max":194,"o":"m 194 119 l 75 -167 l 32 -167 l 139 119 l 194 119 z "},"-":{"ha":417,"x_min":74,"x_max":329,"o":"m 74 242 l 74 288 l 329 288 l 329 242 l 74 242 z "},".":{"ha":226,"x_min":74,"x_max":161,"o":"m 161 42 q 161 33 161 42 q 148 11 161 24 q 117 -1 135 -1 q 87 11 100 -1 q 74 42 74 24 q 88 74 74 61 q 118 88 101 88 q 148 74 135 88 q 161 42 161 61 z "},"/":{"ha":461,"x_min":24,"x_max":458,"o":"m 24 -26 l 410 1022 l 458 1022 l 72 -26 l 24 -26 z "},":":{"ha":243,"x_min":74,"x_max":161,"o":"m 161 42 q 161 33 161 42 q 148 11 161 24 q 117 -1 135 -1 q 87 11 100 -1 q 74 42 74 24 q 88 74 74 61 q 118 88 101 88 q 148 74 135 88 q 161 42 161 61 m 161 391 q 161 382 161 391 q 148 360 161 372 q 117 347 135 347 q 87 360 100 347 q 74 391 74 372 q 88 423 74 410 q 118 436 101 436 q 148 423 135 436 q 161 391 161 410 z "},";":{"ha":279,"x_min":11,"x_max":204,"o":"m 174 119 l 54 -167 l 11 -167 l 118 119 l 174 119 m 204 391 q 204 382 204 391 q 191 360 204 372 q 160 347 178 347 q 130 360 143 347 q 117 391 117 372 q 131 423 117 410 q 161 436 144 436 q 191 423 178 436 q 204 391 204 410 z "},"<":{"ha":944,"x_min":161,"x_max":768,"o":"m 768 31 l 768 -19 l 161 331 l 768 681 l 768 631 l 249 331 l 768 31 z "},"=":{"ha":983,"x_min":139,"x_max":842,"o":"m 842 508 l 842 464 l 139 464 l 139 508 l 842 508 m 842 239 l 842 194 l 139 194 l 139 239 l 842 239 z "},">":{"ha":903,"x_min":161,"x_max":768,"o":"m 161 -19 l 161 31 l 681 331 l 161 631 l 161 681 l 768 331 l 161 -19 z "},"?":{"ha":628,"x_min":43,"x_max":572,"o":"m 325 63 q 325 54 325 63 q 312 32 325 44 q 281 19 299 19 q 251 32 264 19 q 238 63 238 44 q 251 95 238 82 q 282 108 265 108 q 312 95 299 108 q 325 63 325 82 m 92 819 l 43 832 q 141 965 71 914 q 300 1017 211 1017 q 493 938 414 1017 q 572 746 572 858 q 436 506 572 608 q 397 481 428 500 q 351 449 365 461 q 323 407 338 438 q 308 336 308 376 l 308 228 l 260 228 l 260 363 q 277 436 260 404 q 314 483 294 468 q 376 525 333 499 q 440 568 419 551 q 521 742 521 640 q 459 907 521 843 q 310 971 397 971 q 168 930 224 971 q 92 819 113 889 z "},"@":{"ha":1375,"x_min":124,"x_max":1235,"o":"m 1182 261 q 1035 618 1182 471 q 679 765 888 765 q 324 618 471 765 q 178 262 178 471 q 324 -94 178 53 q 679 -240 471 -240 q 969 -149 838 -240 l 1003 -189 q 679 -293 857 -293 q 286 -131 449 -293 q 124 263 124 32 q 286 656 124 493 q 679 818 449 818 q 1072 655 910 818 q 1235 261 1235 492 q 1173 63 1231 125 q 1032 0 1115 0 l 967 0 q 915 19 929 0 q 900 83 901 39 l 904 146 q 814 31 875 75 q 674 -12 753 -12 q 482 67 561 -12 q 403 259 403 147 q 482 451 403 371 q 674 531 561 531 q 813 489 754 531 q 900 378 871 447 l 907 521 l 951 521 l 951 89 q 957 56 951 64 q 983 47 963 47 l 1032 47 q 1136 98 1094 47 q 1182 261 1178 149 m 454 260 q 454 212 454 260 q 516 99 454 164 q 674 33 578 33 q 833 99 771 33 q 894 260 894 164 q 833 421 894 357 q 674 485 771 485 q 516 421 578 485 q 454 260 454 357 z "},"A":{"ha":1028,"x_min":85,"x_max":946,"o":"m 946 0 l 892 0 l 715 417 l 315 417 l 139 0 l 85 0 l 515 1017 l 946 0 m 501 856 l 335 464 l 694 464 l 529 856 l 515 900 l 501 856 z "},"B":{"ha":743,"x_min":111,"x_max":643,"o":"m 111 0 l 111 972 l 321 972 q 531 913 456 972 q 607 729 607 854 q 563 576 607 640 q 432 489 518 513 q 583 408 522 469 q 643 250 643 346 q 556 66 643 132 q 346 0 468 0 l 111 0 m 163 467 l 163 46 l 346 46 q 522 99 451 46 q 592 255 592 153 q 513 412 592 357 q 322 467 435 467 l 163 467 m 163 926 l 163 513 l 342 513 q 497 572 439 513 q 556 729 556 632 q 339 926 556 926 l 163 926 z "},"C":{"ha":931,"x_min":86,"x_max":833,"o":"m 794 94 l 833 57 q 582 -11 717 -11 q 231 134 376 -11 q 86 485 86 279 q 231 838 86 692 q 582 983 376 983 q 832 917 718 983 l 796 876 q 582 932 693 932 q 268 800 399 932 q 138 485 138 668 q 268 171 138 301 q 582 40 399 40 q 794 94 694 40 z "},"D":{"ha":906,"x_min":114,"x_max":806,"o":"m 114 0 l 114 972 l 307 972 q 661 838 517 972 q 806 486 806 703 q 683 161 806 307 q 511 44 621 89 q 258 0 401 0 l 114 0 m 165 926 l 165 46 l 282 46 q 620 167 486 46 q 754 486 754 289 q 620 805 754 683 q 282 926 486 926 l 165 926 z "},"E":{"ha":835,"x_min":126,"x_max":714,"o":"m 126 0 l 126 972 l 694 972 l 694 926 l 178 926 l 178 513 l 640 513 l 640 467 l 178 467 l 178 46 l 714 46 l 714 0 l 126 0 z "},"F":{"ha":815,"x_min":126,"x_max":694,"o":"m 126 0 l 126 972 l 694 972 l 694 926 l 178 926 l 178 513 l 640 513 l 640 467 l 178 467 l 178 0 l 126 0 z "},"G":{"ha":961,"x_min":86,"x_max":853,"o":"m 853 904 l 815 865 q 582 932 707 932 q 268 800 399 932 q 138 485 138 668 q 268 171 138 301 q 582 40 399 40 q 788 90 690 40 l 788 328 q 782 361 788 353 q 756 369 776 369 l 579 369 l 579 417 l 771 417 q 824 397 810 417 q 838 333 838 378 l 838 61 q 582 -11 724 -11 q 231 134 376 -11 q 86 485 86 279 q 231 838 86 692 q 582 983 376 983 q 853 904 729 983 z "},"H":{"ha":972,"x_min":139,"x_max":833,"o":"m 139 0 l 139 972 l 190 972 l 190 513 l 782 513 l 782 972 l 833 972 l 833 0 l 782 0 l 782 467 l 190 467 l 190 0 l 139 0 z "},"I":{"ha":328,"x_min":138,"x_max":189,"o":"m 138 972 l 189 972 l 189 0 l 138 0 l 138 972 z "},"J":{"ha":417,"x_min":25,"x_max":294,"o":"m 243 126 l 243 972 l 294 972 l 294 126 q 215 -61 293 15 q 25 -137 138 -137 l 25 -93 q 180 -31 119 -93 q 243 126 240 32 z "},"K":{"ha":833,"x_min":101,"x_max":760,"o":"m 760 0 l 700 0 l 267 549 l 153 440 l 153 0 l 101 0 l 101 972 l 153 972 l 153 531 l 149 486 l 175 518 l 651 972 l 711 972 l 300 581 l 760 0 z "},"L":{"ha":824,"x_min":126,"x_max":714,"o":"m 126 0 l 126 972 l 178 972 l 178 46 l 714 46 l 714 0 l 126 0 z "},"M":{"ha":1301,"x_min":139,"x_max":1156,"o":"m 1156 1017 l 1156 0 l 1104 0 l 1104 835 l 1108 879 l 1083 842 l 647 272 l 211 842 l 186 879 l 190 835 l 190 0 l 139 0 l 139 1017 l 647 357 l 1156 1017 z "},"N":{"ha":1129,"x_min":139,"x_max":988,"o":"m 988 972 l 988 -44 l 213 854 l 186 890 l 190 846 l 190 0 l 139 0 l 139 1017 l 914 118 l 940 82 l 936 126 l 936 972 l 988 972 z "},"O":{"ha":1167,"x_min":86,"x_max":1081,"o":"m 583 -11 q 480 -11 583 -11 q 231 134 376 -11 q 86 485 86 279 q 231 838 86 692 q 583 983 376 983 q 935 838 789 983 q 1081 485 1081 692 q 935 134 1081 279 q 583 -11 789 -11 m 268 800 q 203 734 268 800 q 138 485 138 668 q 268 171 138 301 q 582 40 399 40 q 897 171 765 40 q 1029 485 1029 301 q 897 800 1029 668 q 582 932 765 932 q 268 800 399 932 z "},"P":{"ha":631,"x_min":139,"x_max":625,"o":"m 139 0 l 139 972 l 339 972 q 575 865 486 972 q 625 722 625 806 q 550 531 625 601 q 339 461 475 461 l 190 461 l 190 0 l 139 0 m 190 507 l 332 507 q 561 649 514 507 q 574 722 574 683 q 503 865 574 804 q 333 926 433 926 l 190 926 l 190 507 z "},"Q":{"ha":1169,"x_min":86,"x_max":1111,"o":"m 582 -11 q 231 134 376 -11 q 86 485 86 279 q 231 838 86 692 q 583 983 376 983 q 935 838 789 983 q 1081 485 1081 692 q 1010 230 1081 346 q 821 50 939 114 l 1111 50 l 1111 -1 l 681 -1 q 582 -11 625 -11 m 268 800 q 203 734 268 800 q 138 485 138 668 q 268 171 138 301 q 582 40 399 40 q 897 171 765 40 q 1029 485 1029 301 q 897 800 1029 668 q 582 932 765 932 q 268 800 399 932 z "},"R":{"ha":824,"x_min":139,"x_max":639,"o":"m 639 0 l 586 0 l 371 461 l 190 461 l 190 0 l 139 0 l 139 972 l 339 972 q 575 865 486 972 q 625 714 625 806 q 572 556 625 622 q 421 468 519 489 l 639 0 m 190 507 l 332 507 q 561 649 514 507 q 574 722 574 683 q 503 865 574 804 q 333 926 433 926 l 190 926 l 190 507 z "},"S":{"ha":788,"x_min":103,"x_max":672,"o":"m 590 894 l 558 853 q 382 928 479 928 q 235 871 285 928 q 186 735 186 814 q 229 615 186 657 q 350 544 272 572 l 397 529 q 543 471 511 492 q 600 428 575 450 q 639 383 625 407 q 672 258 672 326 q 588 63 672 138 q 379 -11 503 -11 q 103 115 225 -11 l 139 153 q 375 39 247 39 q 547 99 474 39 q 621 254 621 158 q 601 336 621 299 q 558 395 581 374 q 489 439 535 417 q 350 489 435 463 q 133 718 142 551 q 190 899 128 821 q 374 978 253 978 q 590 894 494 978 z "},"T":{"ha":768,"x_min":0,"x_max":768,"o":"m 768 972 l 768 926 l 410 926 l 410 0 l 358 0 l 358 926 l 0 926 l 0 972 l 768 972 z "},"U":{"ha":906,"x_min":136,"x_max":774,"o":"m 774 314 q 684 74 774 160 q 453 -11 594 -11 q 224 74 313 -11 q 136 314 136 160 l 136 972 l 188 972 l 188 318 q 261 110 188 185 q 454 35 335 35 q 648 110 574 35 q 722 318 722 185 l 722 972 l 774 972 l 774 314 z "},"V":{"ha":1003,"x_min":75,"x_max":936,"o":"m 882 972 l 936 972 l 506 -44 l 75 972 l 129 972 l 493 114 l 506 72 l 518 114 l 882 972 z "},"W":{"ha":1539,"x_min":75,"x_max":1453,"o":"m 1399 972 l 1453 972 l 1022 -44 l 776 535 l 764 576 l 751 535 l 506 -44 l 75 972 l 129 972 l 493 114 l 506 72 l 518 114 l 736 629 l 592 972 l 646 972 l 1010 114 l 1022 72 l 1035 114 l 1399 972 z "},"X":{"ha":972,"x_min":129,"x_max":833,"o":"m 129 0 l 453 496 l 143 972 l 200 972 l 468 560 l 486 522 l 504 560 l 768 964 l 825 964 l 515 488 l 833 0 l 775 0 l 500 424 l 481 463 l 463 424 l 188 0 l 129 0 z "},"Y":{"ha":886,"x_min":57,"x_max":825,"o":"m 468 365 l 467 0 l 417 0 l 417 365 l 57 972 l 108 972 l 425 443 l 442 406 l 443 406 l 458 443 l 774 972 l 825 972 l 468 365 z "},"Z":{"ha":972,"x_min":113,"x_max":889,"o":"m 201 972 l 849 972 l 849 926 l 178 46 l 889 46 l 889 0 l 113 0 l 113 46 l 783 926 l 196 926 q 131 939 150 926 q 113 989 113 951 l 113 1042 l 160 1042 l 160 1004 q 168 978 160 983 q 201 972 176 972 z "},"[":{"ha":469,"x_min":115,"x_max":349,"o":"m 115 -207 l 115 1036 l 349 1036 l 349 990 l 167 990 l 167 -161 l 349 -161 l 349 -207 l 115 -207 z "},"\\":{"ha":460,"x_min":0,"x_max":435,"o":"m 49 1022 l 435 -26 l 386 -26 l 0 1022 l 49 1022 z "},"]":{"ha":475,"x_min":115,"x_max":349,"o":"m 349 1036 l 349 -207 l 115 -207 l 115 -161 l 297 -161 l 297 990 l 115 990 l 115 1036 l 349 1036 z "},"^":{"ha":653,"x_min":156,"x_max":489,"o":"m 322 917 l 489 665 l 443 665 l 322 835 l 201 665 l 156 665 l 322 917 z "},"_":{"ha":833,"x_min":139,"x_max":694,"o":"m 694 0 l 139 0 l 139 46 l 694 46 l 694 0 z "},"`":{"ha":278,"x_min":-42,"x_max":135,"o":"m 10 850 l 135 665 l 89 665 l -42 850 l 10 850 z "},"a":{"ha":765,"x_min":68,"x_max":617,"o":"m 617 0 l 565 0 l 565 83 l 569 146 q 479 31 540 75 q 339 -12 418 -12 q 147 67 226 -12 q 68 259 68 147 q 147 451 68 371 q 339 531 226 531 q 478 489 419 531 q 565 378 536 447 l 572 521 l 617 521 l 617 0 m 119 260 q 119 212 119 260 q 181 99 119 164 q 340 33 243 33 q 498 99 436 33 q 560 260 560 164 q 498 421 560 357 q 340 485 436 485 q 181 421 243 485 q 119 260 119 357 z "},"b":{"ha":781,"x_min":139,"x_max":688,"o":"m 139 0 l 139 1042 l 190 1042 l 190 378 q 278 489 219 447 q 417 531 336 531 q 608 451 529 531 q 688 259 688 371 q 608 67 688 147 q 417 -12 529 -12 q 276 31 338 -12 q 186 146 215 75 l 190 83 l 190 0 l 139 0 m 196 260 q 196 212 196 260 q 258 99 196 164 q 416 33 319 33 q 574 99 513 33 q 636 260 636 164 q 574 421 636 357 q 416 485 513 485 q 258 421 319 485 q 196 260 196 357 z "},"c":{"ha":535,"x_min":39,"x_max":490,"o":"m 118 69 q 78 109 118 69 q 39 260 39 149 q 118 451 39 371 q 306 531 197 531 q 490 461 414 531 l 463 426 q 307 485 400 485 q 152 421 214 485 q 90 260 90 357 q 152 99 90 163 q 307 35 214 35 q 463 93 400 35 l 490 58 q 306 -11 414 -11 q 118 69 197 -11 z "},"d":{"ha":726,"x_min":68,"x_max":617,"o":"m 617 0 l 565 0 l 565 83 l 569 146 q 479 31 540 75 q 339 -12 418 -12 q 147 67 226 -12 q 68 259 68 147 q 147 451 68 371 q 339 531 226 531 q 478 489 419 531 q 565 378 536 447 l 565 1042 l 617 1042 l 617 0 m 119 260 q 119 212 119 260 q 181 99 119 164 q 340 33 243 33 q 498 99 436 33 q 560 260 560 164 q 498 421 560 357 q 340 485 436 485 q 181 421 243 485 q 119 260 119 357 z "},"e":{"ha":626,"x_min":54,"x_max":565,"o":"m 565 342 l 121 169 q 199 69 146 107 q 333 32 253 32 q 475 89 414 32 l 510 61 q 322 -14 432 -14 q 133 66 213 -14 q 54 258 54 146 q 133 449 54 369 q 325 529 213 529 q 476 478 414 529 q 565 342 538 426 m 106 258 q 108 215 106 243 l 506 369 q 325 483 449 483 q 167 419 229 483 q 106 258 106 356 z "},"f":{"ha":390,"x_min":31,"x_max":390,"o":"m 390 1050 l 390 1006 q 235 943 296 1006 q 172 786 175 881 l 172 521 l 333 521 l 333 475 l 172 475 l 172 0 l 121 0 l 121 475 l 31 475 l 31 521 l 121 521 l 121 786 q 200 974 122 897 q 390 1050 278 1050 z "},"g":{"ha":719,"x_min":68,"x_max":617,"o":"m 136 -265 l 172 -236 q 342 -304 243 -304 q 503 -241 442 -304 q 565 -85 565 -178 l 565 83 l 569 146 q 479 31 540 75 q 339 -12 418 -12 q 147 67 226 -12 q 68 259 68 147 q 147 451 68 371 q 339 531 226 531 q 478 489 419 531 q 565 378 536 447 l 572 521 l 617 521 l 617 -85 q 538 -272 615 -196 q 341 -349 460 -349 q 136 -265 222 -349 m 119 260 q 119 212 119 260 q 181 99 119 164 q 340 33 243 33 q 498 99 436 33 q 560 260 560 164 q 498 421 560 357 q 340 485 436 485 q 181 421 243 485 q 119 260 119 357 z "},"h":{"ha":681,"x_min":139,"x_max":594,"o":"m 594 0 l 543 0 l 543 375 q 508 451 540 421 q 415 485 476 482 q 257 429 324 485 q 190 290 190 374 l 190 0 l 139 0 l 139 1042 l 190 1042 l 190 381 q 278 489 219 449 q 416 530 338 529 q 543 488 494 531 q 594 375 592 444 l 594 0 z "},"i":{"ha":250,"x_min":89,"x_max":176,"o":"m 153 0 l 101 0 l 101 521 l 153 521 l 153 0 m 176 723 q 176 714 176 723 q 163 692 176 704 q 133 679 150 679 q 102 692 115 679 q 89 723 89 704 q 103 755 89 742 q 133 768 117 768 q 163 755 150 768 q 176 723 176 742 z "},"j":{"ha":313,"x_min":64,"x_max":210,"o":"m 99 -347 l 64 -315 q 138 -149 136 -250 l 138 521 l 189 521 l 189 -149 q 99 -347 186 -269 m 210 723 q 210 714 210 723 q 197 692 210 704 q 166 679 183 679 q 135 692 149 679 q 122 723 122 704 q 136 755 122 742 q 167 768 150 768 q 197 755 183 768 q 210 723 210 742 z "},"k":{"ha":624,"x_min":101,"x_max":526,"o":"m 526 0 l 468 0 l 258 286 l 153 188 l 153 0 l 101 0 l 101 1042 l 151 1042 l 151 253 l 463 542 l 493 508 l 294 321 l 526 0 z "},"l":{"ha":257,"x_min":104,"x_max":154,"o":"m 154 0 l 104 0 l 104 1042 l 154 1042 l 154 0 z "},"m":{"ha":1106,"x_min":139,"x_max":999,"o":"m 999 0 l 947 0 l 947 375 q 913 451 944 421 q 819 485 881 482 q 662 431 729 485 q 594 299 594 378 l 594 0 l 543 0 l 543 375 q 508 451 540 421 q 415 485 476 482 q 257 429 324 485 q 190 290 190 374 l 190 0 l 139 0 l 139 519 l 185 519 l 190 381 q 278 489 219 449 q 416 530 338 529 q 543 488 494 531 q 594 375 592 444 q 682 488 624 446 q 819 530 740 529 q 947 488 899 531 q 999 375 996 444 l 999 0 z "},"n":{"ha":688,"x_min":139,"x_max":594,"o":"m 594 0 l 543 0 l 543 375 q 508 451 540 421 q 415 485 476 482 q 257 429 324 485 q 190 290 190 374 l 190 0 l 139 0 l 139 519 l 185 519 l 190 381 q 278 489 219 449 q 416 530 338 529 q 543 488 494 531 q 594 375 592 444 l 594 0 z "},"o":{"ha":651,"x_min":50,"x_max":593,"o":"m 593 260 q 593 203 593 260 q 514 67 593 147 q 322 -12 435 -12 q 129 67 208 -12 q 50 259 50 147 q 129 451 50 371 q 322 531 208 531 q 514 451 435 531 q 593 260 593 372 m 101 260 q 101 212 101 260 q 163 99 101 164 q 322 33 225 33 q 480 99 418 33 q 542 260 542 164 q 480 421 542 357 q 322 485 418 485 q 163 421 225 485 q 101 260 101 357 z "},"p":{"ha":729,"x_min":93,"x_max":642,"o":"m 93 -347 l 93 521 l 139 521 l 144 379 q 232 490 174 449 q 371 532 290 532 q 563 452 483 532 q 642 261 642 372 q 563 70 642 150 q 371 -10 483 -10 q 232 32 290 -10 q 144 143 174 74 l 144 -347 l 93 -347 m 150 262 q 150 214 150 262 q 212 100 150 165 q 370 35 274 35 q 528 100 467 35 q 590 262 590 165 q 528 422 590 358 q 370 486 467 486 q 212 422 274 486 q 150 262 150 358 z "},"q":{"ha":711,"x_min":74,"x_max":628,"o":"m 628 -347 l 575 -347 l 575 146 q 485 31 546 75 q 344 -12 424 -12 q 153 67 232 -12 q 74 259 74 147 q 153 451 74 371 q 344 531 232 531 q 483 489 425 531 q 571 378 542 447 l 578 521 l 628 521 l 628 -347 m 125 260 q 125 212 125 260 q 187 99 125 164 q 345 33 249 33 q 503 99 442 33 q 565 260 565 164 q 503 421 565 357 q 345 485 442 485 q 187 421 249 485 q 125 260 125 357 z "},"r":{"ha":460,"x_min":139,"x_max":408,"o":"m 139 519 l 185 519 l 190 381 q 276 488 219 447 q 408 531 333 528 l 407 485 q 261 428 321 482 q 190 290 201 374 l 190 0 l 139 0 l 139 519 z "},"s":{"ha":554,"x_min":115,"x_max":439,"o":"m 418 468 l 392 432 q 344 465 378 449 q 275 482 310 482 q 212 460 240 482 q 183 396 183 438 q 203 335 183 354 q 263 303 224 317 q 325 280 301 290 q 378 250 349 269 q 439 149 439 213 q 397 37 439 85 q 275 -11 354 -11 q 115 54 167 -11 l 146 92 q 206 49 165 65 q 283 35 247 32 q 353 64 318 38 q 388 140 388 90 q 311 236 388 207 q 279 247 294 243 l 246 258 q 223 267 228 265 q 202 276 218 268 q 180 288 186 283 q 163 303 174 293 q 147 325 151 314 q 133 385 133 356 q 177 490 133 451 q 278 528 221 528 q 418 468 365 528 z "},"t":{"ha":392,"x_min":58,"x_max":360,"o":"m 200 0 l 149 0 l 149 475 l 58 475 l 58 521 l 149 521 l 149 860 l 200 860 l 200 521 l 360 521 l 360 475 l 200 475 l 200 0 z "},"u":{"ha":735,"x_min":139,"x_max":594,"o":"m 594 0 l 543 0 l 543 83 l 547 146 q 458 41 518 79 q 319 0 397 3 q 190 43 239 0 q 139 156 142 86 l 139 521 l 190 521 l 190 156 q 225 79 193 110 q 318 46 257 49 q 476 101 410 46 q 543 240 543 157 l 543 531 l 594 531 l 594 0 z "},"v":{"ha":694,"x_min":75,"x_max":633,"o":"m 354 72 l 579 521 l 633 521 l 354 -32 l 75 521 l 129 521 l 354 72 z "},"w":{"ha":1072,"x_min":75,"x_max":1013,"o":"m 733 72 l 958 521 l 1013 521 l 733 -32 l 543 343 l 354 -32 l 75 521 l 129 521 l 354 72 l 517 396 l 454 521 l 508 521 l 733 72 z "},"x":{"ha":556,"x_min":58,"x_max":500,"o":"m 58 521 l 117 521 l 281 294 l 443 519 l 500 519 l 311 258 l 499 0 l 442 0 l 279 225 l 117 0 l 58 0 l 246 260 l 58 521 z "},"y":{"ha":678,"x_min":71,"x_max":629,"o":"m 192 -347 l 139 -347 l 322 21 l 71 521 l 125 521 l 350 72 l 575 521 l 629 521 l 192 -347 z "},"z":{"ha":626,"x_min":58,"x_max":556,"o":"m 147 521 l 556 521 l 556 475 l 124 46 l 556 46 l 556 0 l 58 0 l 58 46 l 490 475 l 142 475 q 77 488 96 475 q 58 538 58 500 l 58 590 l 106 590 l 106 553 q 114 526 106 532 q 147 521 122 521 z "},"{":{"ha":389,"x_min":42,"x_max":336,"o":"m 42 392 l 42 438 q 110 472 83 439 q 144 543 136 506 q 151 625 151 581 l 151 872 q 182 1003 151 969 q 271 1036 213 1036 l 336 1036 l 336 990 l 275 990 q 217 963 232 990 q 203 847 203 936 l 203 601 q 113 414 203 472 q 203 228 203 356 l 203 -18 q 217 -134 203 -107 q 275 -161 232 -161 l 336 -161 l 336 -207 l 271 -207 q 182 -174 213 -207 q 151 -43 151 -140 l 151 204 q 144 286 151 249 q 110 357 136 324 q 42 392 83 390 z "},"|":{"ha":317,"x_min":126,"x_max":178,"o":"m 126 -322 l 126 972 l 178 972 l 178 -322 l 126 -322 z "},"}":{"ha":385,"x_min":42,"x_max":336,"o":"m 336 438 l 336 392 q 268 357 294 390 q 234 286 242 324 q 226 204 226 249 l 226 -43 q 196 -174 226 -140 q 107 -207 165 -207 l 42 -207 l 42 -161 l 103 -161 q 160 -134 146 -161 q 175 -18 175 -107 l 175 228 q 265 414 175 356 q 175 601 175 472 l 175 847 q 160 963 175 936 q 103 990 146 990 l 42 990 l 42 1036 l 107 1036 q 196 1003 165 1036 q 226 872 226 969 l 226 625 q 234 543 226 581 q 268 472 242 506 q 336 438 294 439 z "},"~":{"ha":679,"x_min":181,"x_max":518,"o":"m 518 731 q 488 656 515 681 q 420 631 460 631 q 340 670 381 631 q 279 710 300 710 q 219 644 226 710 l 181 649 q 211 724 183 699 q 276 749 239 749 q 356 709 314 749 q 419 669 399 669 q 479 735 472 669 l 518 731 z "},"¡":{"ha":278,"x_min":94,"x_max":182,"o":"m 114 -292 l 114 519 l 163 519 l 163 -292 l 114 -292 m 94 683 q 94 692 94 683 q 108 714 94 701 q 138 726 121 726 q 169 714 156 726 q 182 683 182 701 q 169 651 182 664 q 139 638 156 638 q 108 651 122 638 q 94 683 94 664 z "},"¢":{"ha":535,"x_min":39,"x_max":490,"o":"m 268 -93 l 268 -7 q 104 84 169 8 q 39 260 39 160 q 104 435 39 360 q 268 526 169 511 l 268 608 l 319 608 l 319 531 q 490 461 415 526 l 463 426 q 319 485 401 481 l 319 35 q 463 93 401 36 l 490 58 q 319 -11 418 -7 l 319 -93 l 268 -93 m 139 406 q 115 376 139 406 q 90 260 90 346 q 139 113 90 174 q 268 38 188 51 l 268 481 q 139 406 188 467 z "},"£":{"ha":797,"x_min":40,"x_max":693,"o":"m 529 0 l 40 0 l 40 50 l 101 50 q 160 76 146 50 q 174 189 174 101 l 174 417 l 83 417 l 83 463 l 174 463 l 174 694 q 236 835 174 789 q 408 881 299 881 q 628 754 565 881 l 593 733 q 522 814 561 790 q 400 838 483 838 q 270 806 317 838 q 224 694 224 774 l 224 463 l 386 463 l 386 417 l 224 417 l 224 164 q 204 50 224 89 l 504 50 q 620 65 593 50 q 647 122 647 79 l 647 183 l 693 183 l 693 118 q 660 30 693 60 q 529 0 626 0 z "},"¤":{"ha":694,"x_min":147,"x_max":538,"o":"m 193 385 q 153 501 153 436 q 193 618 153 567 l 147 665 l 179 697 l 225 650 q 342 692 278 692 q 458 651 407 692 l 504 697 l 536 665 l 492 621 q 533 502 533 568 q 492 383 533 436 l 538 339 l 506 307 l 460 351 q 343 311 408 311 q 224 351 278 311 l 179 307 l 147 339 l 193 385 m 344 638 q 316 638 344 638 q 248 597 288 638 q 208 501 208 557 q 249 404 208 444 q 345 364 289 364 q 442 403 401 364 q 482 500 482 443 q 442 597 482 557 q 344 638 401 638 z "},"¥":{"ha":886,"x_min":57,"x_max":825,"o":"m 671 183 l 671 139 l 467 139 l 467 0 l 415 0 l 415 139 l 208 139 l 208 183 l 415 183 l 417 365 l 208 365 l 208 410 l 390 410 l 57 972 l 108 972 l 442 417 l 443 417 l 774 972 l 825 972 l 494 410 l 671 410 l 671 365 l 468 365 l 467 183 l 671 183 z "},"¦":{"ha":299,"x_min":126,"x_max":178,"o":"m 178 486 l 126 486 l 126 972 l 178 972 l 178 486 m 178 -324 l 126 -324 l 126 163 l 178 163 l 178 -324 z "},"§":{"ha":694,"x_min":200,"x_max":515,"o":"m 383 779 l 499 581 q 515 458 532 524 q 440 360 497 393 q 321 342 382 326 l 390 222 q 418 61 454 111 q 369 21 403 39 l 313 -12 l 288 32 l 342 63 q 378 112 379 82 q 333 218 378 142 q 217 418 218 415 q 201 542 183 476 q 276 640 218 607 q 394 658 329 672 l 326 775 q 299 936 263 886 q 347 976 314 958 l 404 1010 l 429 965 l 375 935 q 338 885 338 915 q 383 779 339 856 m 299 601 q 249 530 260 578 q 263 442 239 482 q 331 390 286 403 q 415 400 375 376 q 467 469 456 424 q 454 554 478 514 q 385 609 431 594 q 299 601 340 624 z "},"¨":{"ha":514,"x_min":97,"x_max":414,"o":"m 185 723 q 185 714 185 723 q 172 692 185 704 q 141 679 158 679 q 110 692 124 679 q 97 723 97 704 q 111 755 97 742 q 142 768 125 768 q 172 755 158 768 q 185 723 185 742 m 414 723 q 414 714 414 723 q 401 692 414 704 q 370 679 388 679 q 340 692 353 679 q 326 723 326 704 q 340 755 326 742 q 371 768 354 768 q 401 755 388 768 q 414 723 414 742 z "},"©":{"ha":1101,"x_min":200,"x_max":911,"o":"m 406 361 q 372 394 406 361 q 339 519 339 426 q 406 679 339 613 q 562 746 472 746 q 717 688 651 746 l 689 656 q 560 700 633 700 q 437 649 486 700 q 388 519 388 599 q 437 390 388 440 q 564 340 486 340 q 689 386 642 340 l 717 353 q 563 296 653 296 q 406 361 472 296 m 807 262 q 755 211 807 262 q 556 160 703 160 q 304 262 408 160 q 200 515 200 364 q 304 768 200 667 q 556 869 408 869 q 807 768 703 869 q 911 515 911 667 q 807 262 911 364 m 335 292 q 379 247 335 292 q 556 203 424 203 q 776 292 688 203 q 865 515 865 381 q 776 738 865 649 q 556 826 688 826 q 335 738 424 826 q 246 515 246 649 q 335 292 246 381 z "},"ª":{"ha":813,"x_min":129,"x_max":525,"o":"m 525 425 l 489 425 l 489 485 l 492 531 q 426 448 469 479 q 325 417 382 417 q 187 474 244 417 q 129 613 129 532 q 187 751 129 693 q 325 808 244 808 q 489 697 442 808 l 493 800 l 525 800 l 525 425 m 211 496 q 233 472 211 496 q 325 449 256 449 q 440 496 394 449 q 485 613 485 543 q 440 729 485 683 q 326 775 396 775 q 211 729 256 775 q 167 613 167 683 q 211 496 167 543 z "},"«":{"ha":835,"x_min":163,"x_max":638,"o":"m 400 107 l 163 332 l 400 556 l 400 506 l 229 332 l 400 157 l 400 107 m 638 107 l 400 332 l 638 556 l 638 506 l 467 332 l 638 157 l 638 107 z "},"¬":{"ha":776,"x_min":139,"x_max":639,"o":"m 593 206 l 593 299 l 139 299 l 139 344 l 639 344 l 639 206 l 593 206 z "},"®":{"ha":1113,"x_min":200,"x_max":911,"o":"m 461 319 l 461 740 l 550 740 q 637 707 592 740 q 682 626 682 674 q 654 542 682 578 q 586 496 626 506 l 660 360 q 679 350 665 350 l 693 350 l 693 319 l 658 319 q 636 328 642 319 l 550 493 l 497 493 l 497 319 l 461 319 m 497 531 l 546 531 q 624 558 600 531 q 647 619 647 585 q 618 680 647 654 q 547 706 589 706 l 497 706 l 497 531 m 807 265 q 755 214 807 265 q 556 163 703 163 q 304 265 408 163 q 200 518 200 367 q 304 771 200 669 q 556 872 408 872 q 807 771 703 872 q 911 518 911 669 q 807 265 911 367 m 335 294 q 379 250 335 294 q 556 206 424 206 q 776 294 688 206 q 865 517 865 383 q 776 740 865 651 q 556 829 688 829 q 335 740 424 829 q 246 517 246 651 q 335 294 246 383 z "},"¯":{"ha":554,"x_min":118,"x_max":438,"o":"m 118 671 l 118 717 l 438 717 l 438 671 l 118 671 z "},"°":{"ha":392,"x_min":79,"x_max":303,"o":"m 303 778 q 303 754 303 778 q 270 699 303 731 q 191 667 238 667 q 112 699 144 667 q 79 778 79 731 q 112 857 79 825 q 191 889 144 889 q 270 857 238 889 q 303 778 303 825 m 138 722 q 148 711 138 722 q 192 700 158 700 q 245 722 225 700 q 265 778 265 743 q 246 833 265 813 q 192 854 226 854 q 137 833 157 854 q 117 778 117 813 q 138 722 117 744 z "},"±":{"ha":728,"x_min":119,"x_max":619,"o":"m 619 175 l 119 175 l 119 221 l 619 221 l 619 175 m 346 565 l 346 792 l 392 792 l 392 565 l 619 565 l 619 519 l 392 519 l 392 292 l 346 292 l 346 519 l 119 519 l 119 565 l 346 565 z "},"²":{"ha":553,"x_min":133,"x_max":417,"o":"m 192 774 l 171 754 q 136 844 136 789 q 169 937 136 900 q 260 974 203 974 q 351 935 317 974 q 386 844 386 897 q 356 735 386 790 q 296 645 326 681 q 206 549 265 610 l 417 549 l 417 521 l 133 521 l 244 636 q 319 733 283 676 q 356 842 356 790 q 327 919 356 893 q 253 946 299 946 q 187 915 207 946 q 167 841 167 883 q 192 774 167 799 z "},"³":{"ha":582,"x_min":142,"x_max":429,"o":"m 204 828 l 346 1008 l 168 1008 l 168 1035 l 393 1035 l 261 863 q 378 816 326 863 q 429 693 429 769 q 379 569 429 617 q 259 522 329 522 q 142 568 189 522 l 161 589 q 261 547 200 547 q 361 590 322 547 q 400 695 400 632 q 359 798 400 758 q 261 838 318 838 q 204 828 235 838 z "},"´":{"ha":315,"x_min":139,"x_max":315,"o":"m 139 665 l 264 850 l 315 850 l 185 665 l 139 665 z "},"µ":{"ha":757,"x_min":139,"x_max":594,"o":"m 594 0 l 543 0 l 543 83 l 547 146 q 458 41 518 79 q 319 0 397 3 q 190 42 239 0 l 190 -279 l 139 -279 l 139 521 l 190 521 l 190 156 q 225 79 193 110 q 318 46 257 49 q 469 101 407 46 q 543 240 532 156 l 543 531 l 594 531 l 594 0 z "},"¶":{"ha":693,"x_min":53,"x_max":556,"o":"m 329 0 l 279 0 l 279 588 q 119 653 185 588 q 53 814 53 719 q 119 975 53 908 q 279 1042 185 1042 l 556 1042 l 556 0 l 506 0 l 506 996 l 329 996 l 329 0 z "},"·":{"ha":233,"x_min":74,"x_max":161,"o":"m 161 391 q 161 382 161 391 q 148 360 161 372 q 117 347 135 347 q 87 360 100 347 q 74 391 74 372 q 88 423 74 410 q 118 436 101 436 q 148 423 135 436 q 161 391 161 410 z "},"¸":{"ha":628,"x_min":147,"x_max":426,"o":"m 268 0 l 319 0 l 319 -10 q 339 -58 319 -43 q 358 -71 346 -64 q 426 -190 426 -108 q 390 -292 426 -250 q 296 -335 353 -335 q 147 -235 182 -335 l 194 -224 q 228 -272 203 -253 q 291 -290 253 -290 q 356 -262 329 -290 q 383 -190 383 -233 q 349 -112 383 -146 q 320 -94 339 -106 q 292 -75 301 -82 q 268 -22 268 -57 l 268 0 z "},"¹":{"ha":332,"x_min":94,"x_max":178,"o":"m 94 889 l 94 924 l 178 972 l 178 557 l 138 557 l 138 914 l 94 889 z "},"º":{"ha":651,"x_min":126,"x_max":518,"o":"m 518 613 q 518 572 518 613 q 461 474 518 532 q 323 417 404 417 q 184 474 242 417 q 126 613 126 532 q 184 751 126 693 q 323 808 242 808 q 461 751 404 808 q 518 613 518 693 m 208 496 q 231 472 208 496 q 322 449 253 449 q 436 496 392 449 q 481 613 481 543 q 436 729 481 683 q 322 775 392 775 q 208 729 253 775 q 164 613 164 683 q 208 496 164 543 z "},"»":{"ha":767,"x_min":163,"x_max":638,"o":"m 638 332 l 400 107 l 400 157 l 571 332 l 400 506 l 400 556 l 638 332 m 400 332 l 163 107 l 163 157 l 333 332 l 163 506 l 163 556 l 400 332 z "},"¼":{"ha":1344,"x_min":168,"x_max":1174,"o":"m 356 -26 l 742 1022 l 790 1022 l 404 -26 l 356 -26 m 696 189 l 1074 681 l 1074 224 l 1174 224 l 1174 189 l 1074 189 l 1074 0 l 1036 0 l 1036 189 l 696 189 m 1036 574 l 768 224 l 1036 224 l 1036 574 m 168 864 l 168 899 l 297 974 l 297 325 l 261 325 l 261 917 l 168 864 z "},"½":{"ha":1485,"x_min":168,"x_max":1158,"o":"m 168 864 l 168 899 l 297 974 l 297 325 l 261 325 l 261 917 l 168 864 m 356 -26 l 742 1022 l 790 1022 l 404 -26 l 356 -26 m 832 357 l 806 333 q 757 461 757 382 q 805 594 757 540 q 933 647 853 647 q 1064 592 1014 647 q 1114 454 1114 538 q 1025 233 1114 350 q 947 138 976 171 l 847 31 l 1158 31 l 1158 -1 l 761 -1 l 882 122 q 1054 347 1017 267 q 1078 442 1078 397 q 1033 574 1078 532 q 936 615 989 615 q 826 566 860 615 q 793 456 793 517 q 832 357 793 396 z "},"¾":{"ha":1772,"x_min":238,"x_max":1450,"o":"m 322 701 l 336 717 l 515 949 l 274 949 l 274 983 l 579 983 l 399 750 q 558 687 489 750 q 628 519 628 624 q 559 351 628 415 q 397 286 490 286 q 238 349 304 286 l 264 376 q 401 321 319 321 q 535 378 482 321 q 588 522 588 436 q 532 661 588 607 q 399 715 476 715 q 322 701 358 715 m 639 -26 l 1025 1022 l 1074 1022 l 688 -26 l 639 -26 m 972 189 l 1350 681 l 1350 224 l 1450 224 l 1450 189 l 1350 189 l 1350 0 l 1313 0 l 1313 189 l 972 189 m 1313 574 l 1044 224 l 1313 224 l 1313 574 z "},"¿":{"ha":569,"x_min":6,"x_max":535,"o":"m 253 685 q 253 695 253 685 q 266 717 253 704 q 297 729 279 729 q 327 717 314 729 q 340 685 340 704 q 326 653 340 667 q 296 640 313 640 q 266 653 279 640 q 253 685 253 667 m 486 -71 l 535 -83 q 437 -217 507 -165 q 278 -268 367 -268 q 85 -189 164 -268 q 6 3 6 -110 q 142 243 6 142 q 181 268 150 249 q 226 299 213 288 q 255 342 240 311 q 269 413 269 372 l 269 521 l 318 521 l 318 386 q 301 313 318 344 q 264 265 283 281 q 201 224 244 250 q 138 181 158 197 q 57 7 57 108 q 119 -158 57 -94 q 267 -222 181 -222 q 410 -181 354 -222 q 486 -71 465 -140 z "},"À":{"ha":1028,"x_min":85,"x_max":946,"o":"m 414 1296 l 539 1111 l 493 1111 l 363 1296 l 414 1296 m 946 0 l 892 0 l 715 417 l 315 417 l 139 0 l 85 0 l 515 1017 l 946 0 m 501 856 l 335 464 l 694 464 l 529 856 l 515 900 l 501 856 z "},"Á":{"ha":1028,"x_min":85,"x_max":946,"o":"m 492 1111 l 617 1296 l 668 1296 l 538 1111 l 492 1111 m 946 0 l 892 0 l 715 417 l 315 417 l 139 0 l 85 0 l 515 1017 l 946 0 m 501 856 l 335 464 l 694 464 l 529 856 l 515 900 l 501 856 z "},"Â":{"ha":1028,"x_min":85,"x_max":946,"o":"m 946 0 l 892 0 l 715 417 l 315 417 l 139 0 l 85 0 l 515 1017 l 946 0 m 501 856 l 335 464 l 694 464 l 529 856 l 515 900 l 501 856 m 515 1363 l 682 1111 l 636 1111 l 515 1281 l 394 1111 l 349 1111 l 515 1363 z "},"Ã":{"ha":1028,"x_min":85,"x_max":946,"o":"m 724 1193 q 685 1119 721 1144 q 600 1094 649 1094 q 508 1135 551 1094 q 432 1175 465 1175 q 346 1111 354 1175 l 307 1115 q 346 1189 310 1164 q 431 1214 382 1214 q 522 1174 479 1214 q 599 1133 565 1133 q 685 1197 676 1133 l 724 1193 m 946 0 l 892 0 l 715 417 l 315 417 l 139 0 l 85 0 l 515 1017 l 946 0 m 501 856 l 335 464 l 694 464 l 529 856 l 515 900 l 501 856 z "},"Ä":{"ha":1028,"x_min":85,"x_max":946,"o":"m 400 1155 q 400 1145 400 1155 q 387 1124 400 1136 q 356 1111 374 1111 q 326 1124 339 1111 q 313 1155 313 1136 q 326 1187 313 1174 q 357 1200 340 1200 q 387 1187 374 1200 q 400 1155 400 1174 m 724 1155 q 724 1145 724 1155 q 710 1124 724 1136 q 680 1111 697 1111 q 649 1124 663 1111 q 636 1155 636 1136 q 650 1187 636 1174 q 681 1200 664 1200 q 710 1187 697 1200 q 724 1155 724 1174 m 946 0 l 892 0 l 715 417 l 315 417 l 139 0 l 85 0 l 515 1017 l 946 0 m 501 856 l 335 464 l 694 464 l 529 856 l 515 900 l 501 856 z "},"Å":{"ha":1028,"x_min":85,"x_max":946,"o":"m 450 1099 q 436 1113 450 1099 q 422 1164 422 1126 q 450 1229 422 1201 q 515 1257 478 1257 q 581 1229 553 1257 q 608 1164 608 1201 q 581 1099 608 1126 q 515 1071 553 1071 q 450 1099 478 1071 m 476 1203 q 469 1195 476 1203 q 461 1164 461 1188 q 476 1125 461 1140 q 515 1110 492 1110 q 554 1125 539 1110 q 569 1164 569 1140 q 554 1203 569 1188 q 515 1218 539 1218 q 476 1203 492 1218 m 946 0 l 892 0 l 715 417 l 315 417 l 139 0 l 85 0 l 515 1017 l 946 0 m 501 856 l 335 464 l 694 464 l 529 856 l 515 900 l 501 856 z "},"Æ":{"ha":1096,"x_min":85,"x_max":969,"o":"m 515 0 l 515 417 l 315 417 l 139 0 l 85 0 l 496 972 l 950 972 l 950 926 l 567 926 l 567 513 l 896 513 l 896 467 l 567 467 l 567 46 l 969 46 l 969 0 l 515 0 m 503 860 l 335 464 l 515 464 l 515 857 l 517 899 l 503 860 z "},"Ç":{"ha":931,"x_min":86,"x_max":833,"o":"m 794 94 l 833 57 q 596 -11 725 -7 q 615 -58 596 -46 q 635 -71 622 -64 q 703 -190 703 -108 q 666 -292 703 -250 q 572 -335 629 -335 q 424 -235 458 -335 l 471 -224 q 504 -272 479 -253 q 567 -290 529 -290 q 633 -262 606 -290 q 660 -190 660 -233 q 625 -112 660 -146 q 597 -94 615 -106 q 569 -75 578 -82 q 544 -22 544 -57 l 544 -10 q 219 147 351 4 q 86 490 86 289 q 231 838 86 692 q 582 983 376 983 q 832 917 718 983 l 796 876 q 582 932 693 932 q 268 800 399 932 q 138 485 138 668 q 268 171 138 301 q 582 40 399 40 q 794 94 694 40 z "},"È":{"ha":835,"x_min":126,"x_max":714,"o":"m 301 1296 l 426 1111 l 381 1111 l 250 1296 l 301 1296 m 126 0 l 126 972 l 694 972 l 694 926 l 178 926 l 178 513 l 640 513 l 640 467 l 178 467 l 178 46 l 714 46 l 714 0 l 126 0 z "},"É":{"ha":835,"x_min":126,"x_max":714,"o":"m 381 1111 l 506 1296 l 557 1296 l 426 1111 l 381 1111 m 126 0 l 126 972 l 694 972 l 694 926 l 178 926 l 178 513 l 640 513 l 640 467 l 178 467 l 178 46 l 714 46 l 714 0 l 126 0 z "},"Ê":{"ha":835,"x_min":126,"x_max":714,"o":"m 126 0 l 126 972 l 694 972 l 694 926 l 178 926 l 178 513 l 640 513 l 640 467 l 178 467 l 178 46 l 714 46 l 714 0 l 126 0 m 417 1363 l 583 1111 l 538 1111 l 417 1281 l 296 1111 l 250 1111 l 417 1363 z "},"Ë":{"ha":835,"x_min":126,"x_max":714,"o":"m 292 1155 q 292 1145 292 1155 q 278 1124 292 1136 q 248 1111 265 1111 q 217 1124 231 1111 q 204 1155 204 1136 q 218 1187 204 1174 q 249 1200 232 1200 q 278 1187 265 1200 q 292 1155 292 1174 m 615 1155 q 615 1145 615 1155 q 602 1124 615 1136 q 572 1111 589 1111 q 541 1124 554 1111 q 528 1155 528 1136 q 542 1187 528 1174 q 572 1200 556 1200 q 602 1187 589 1200 q 615 1155 615 1174 m 126 0 l 126 972 l 694 972 l 694 926 l 178 926 l 178 513 l 640 513 l 640 467 l 178 467 l 178 46 l 714 46 l 714 0 l 126 0 z "},"Ì":{"ha":328,"x_min":8,"x_max":189,"o":"m 60 1296 l 185 1111 l 139 1111 l 8 1296 l 60 1296 m 138 972 l 189 972 l 189 0 l 138 0 l 138 972 z "},"Í":{"ha":328,"x_min":138,"x_max":315,"o":"m 139 1111 l 264 1296 l 315 1296 l 185 1111 l 139 1111 m 138 972 l 189 972 l 189 0 l 138 0 l 138 972 z "},"Î":{"ha":328,"x_min":-4,"x_max":329,"o":"m 138 972 l 189 972 l 189 0 l 138 0 l 138 972 m 163 1363 l 329 1111 l 283 1111 l 163 1281 l 42 1111 l -4 1111 l 163 1363 z "},"Ï":{"ha":328,"x_min":-42,"x_max":369,"o":"m 46 1155 q 46 1145 46 1155 q 33 1124 46 1136 q 2 1111 19 1111 q -28 1124 -15 1111 q -42 1155 -42 1136 q -28 1187 -42 1174 q 3 1200 -14 1200 q 33 1187 19 1200 q 46 1155 46 1174 m 369 1155 q 369 1145 369 1155 q 356 1124 369 1136 q 326 1111 343 1111 q 295 1124 308 1111 q 282 1155 282 1136 q 296 1187 282 1174 q 326 1200 310 1200 q 356 1187 343 1200 q 369 1155 369 1174 m 138 972 l 189 972 l 189 0 l 138 0 l 138 972 z "},"Ð":{"ha":897,"x_min":31,"x_max":806,"o":"m 31 467 l 31 513 l 114 513 l 114 972 l 307 972 q 661 838 517 972 q 806 486 806 703 q 683 161 806 307 q 511 44 621 89 q 258 0 401 0 l 114 0 l 114 467 l 31 467 m 165 926 l 165 513 l 449 513 l 449 467 l 165 467 l 165 46 l 282 46 q 620 167 486 46 q 754 486 754 289 q 620 805 754 683 q 282 926 486 926 l 165 926 z "},"Ñ":{"ha":1129,"x_min":139,"x_max":988,"o":"m 776 1193 q 738 1119 774 1144 q 653 1094 701 1094 q 561 1135 604 1094 q 485 1175 518 1175 q 399 1111 407 1175 l 360 1115 q 399 1189 363 1164 q 483 1214 435 1214 q 575 1174 532 1214 q 651 1133 618 1133 q 738 1197 729 1133 l 776 1193 m 988 972 l 988 -44 l 213 854 l 186 890 l 190 846 l 190 0 l 139 0 l 139 1017 l 914 118 l 940 82 l 936 126 l 936 972 l 988 972 z "},"Ò":{"ha":1165,"x_min":86,"x_max":1081,"o":"m 478 1296 l 603 1111 l 557 1111 l 426 1296 l 478 1296 m 583 -11 q 480 -11 583 -11 q 231 134 376 -11 q 86 485 86 279 q 231 838 86 692 q 583 983 376 983 q 935 838 789 983 q 1081 485 1081 692 q 935 134 1081 279 q 583 -11 789 -11 m 268 800 q 203 734 268 800 q 138 485 138 668 q 268 171 138 301 q 582 40 399 40 q 897 171 765 40 q 1029 485 1029 301 q 897 800 1029 668 q 582 932 765 932 q 268 800 399 932 z "},"Ó":{"ha":1167,"x_min":86,"x_max":1081,"o":"m 556 1111 l 681 1296 l 732 1296 l 601 1111 l 556 1111 m 583 -11 q 480 -11 583 -11 q 231 134 376 -11 q 86 485 86 279 q 231 838 86 692 q 583 983 376 983 q 935 838 789 983 q 1081 485 1081 692 q 935 134 1081 279 q 583 -11 789 -11 m 268 800 q 203 734 268 800 q 138 485 138 668 q 268 171 138 301 q 582 40 399 40 q 897 171 765 40 q 1029 485 1029 301 q 897 800 1029 668 q 582 932 765 932 q 268 800 399 932 z "},"Ô":{"ha":1165,"x_min":86,"x_max":1081,"o":"m 583 -11 q 480 -11 583 -11 q 231 134 376 -11 q 86 485 86 279 q 231 838 86 692 q 583 983 376 983 q 935 838 789 983 q 1081 485 1081 692 q 935 134 1081 279 q 583 -11 789 -11 m 268 800 q 203 734 268 800 q 138 485 138 668 q 268 171 138 301 q 582 40 399 40 q 897 171 765 40 q 1029 485 1029 301 q 897 800 1029 668 q 582 932 765 932 q 268 800 399 932 m 576 1363 l 743 1111 l 697 1111 l 576 1281 l 456 1111 l 410 1111 l 576 1363 z "},"Õ":{"ha":1165,"x_min":86,"x_max":1081,"o":"m 794 1193 q 756 1119 792 1144 q 671 1094 719 1094 q 579 1135 622 1094 q 503 1175 536 1175 q 417 1111 425 1175 l 378 1115 q 417 1189 381 1164 q 501 1214 453 1214 q 593 1174 550 1214 q 669 1133 636 1133 q 756 1197 747 1133 l 794 1193 m 583 -11 q 480 -11 583 -11 q 231 134 376 -11 q 86 485 86 279 q 231 838 86 692 q 583 983 376 983 q 935 838 789 983 q 1081 485 1081 692 q 935 134 1081 279 q 583 -11 789 -11 m 268 800 q 203 734 268 800 q 138 485 138 668 q 268 171 138 301 q 582 40 399 40 q 897 171 765 40 q 1029 485 1029 301 q 897 800 1029 668 q 582 932 765 932 q 268 800 399 932 z "},"Ö":{"ha":1165,"x_min":86,"x_max":1081,"o":"m 469 1155 q 469 1145 469 1155 q 456 1124 469 1136 q 426 1111 443 1111 q 395 1124 408 1111 q 382 1155 382 1136 q 396 1187 382 1174 q 426 1200 410 1200 q 456 1187 443 1200 q 469 1155 469 1174 m 793 1155 q 793 1145 793 1155 q 780 1124 793 1136 q 749 1111 767 1111 q 719 1124 732 1111 q 706 1155 706 1136 q 719 1187 706 1174 q 750 1200 733 1200 q 780 1187 767 1200 q 793 1155 793 1174 m 583 -11 q 480 -11 583 -11 q 231 134 376 -11 q 86 485 86 279 q 231 838 86 692 q 583 983 376 983 q 935 838 789 983 q 1081 485 1081 692 q 935 134 1081 279 q 583 -11 789 -11 m 268 800 q 203 734 268 800 q 138 485 138 668 q 268 171 138 301 q 582 40 399 40 q 897 171 765 40 q 1029 485 1029 301 q 897 800 1029 668 q 582 932 765 932 q 268 800 399 932 z "},"×":{"ha":694,"x_min":154,"x_max":540,"o":"m 314 193 l 154 353 l 186 386 l 346 225 l 507 386 l 540 354 l 379 193 l 540 32 l 507 0 l 346 160 l 186 0 l 154 33 l 314 193 z "},"Ø":{"ha":1167,"x_min":86,"x_max":1081,"o":"m 244 121 q 86 480 86 268 q 231 838 86 692 q 582 983 376 983 q 888 878 753 983 l 976 983 l 1011 956 l 921 850 q 1081 490 1081 701 q 935 134 1081 279 q 582 -11 789 -11 q 279 92 410 -11 l 182 -24 l 147 7 l 244 121 m 582 932 q 268 800 399 932 q 138 480 138 668 q 278 161 138 292 l 853 839 q 582 932 733 932 m 582 40 q 897 171 765 40 q 1029 488 1029 301 q 888 808 1029 674 l 313 131 q 582 40 432 40 z "},"Ù":{"ha":906,"x_min":136,"x_max":774,"o":"m 338 1296 l 463 1111 l 417 1111 l 286 1296 l 338 1296 m 774 314 q 684 74 774 160 q 453 -11 594 -11 q 224 74 313 -11 q 136 314 136 160 l 136 972 l 188 972 l 188 318 q 261 110 188 185 q 454 35 335 35 q 648 110 574 35 q 722 318 722 185 l 722 972 l 774 972 l 774 314 z "},"Ú":{"ha":906,"x_min":136,"x_max":774,"o":"m 417 1111 l 542 1296 l 593 1296 l 463 1111 l 417 1111 m 774 314 q 684 74 774 160 q 453 -11 594 -11 q 224 74 313 -11 q 136 314 136 160 l 136 972 l 188 972 l 188 318 q 261 110 188 185 q 454 35 335 35 q 648 110 574 35 q 722 318 722 185 l 722 972 l 774 972 l 774 314 z "},"Û":{"ha":906,"x_min":136,"x_max":774,"o":"m 774 314 q 684 74 774 160 q 453 -11 594 -11 q 224 74 313 -11 q 136 314 136 160 l 136 972 l 188 972 l 188 318 q 261 110 188 185 q 454 35 335 35 q 648 110 574 35 q 722 318 722 185 l 722 972 l 774 972 l 774 314 m 451 1363 l 618 1111 l 572 1111 l 451 1281 l 331 1111 l 285 1111 l 451 1363 z "},"Ü":{"ha":906,"x_min":136,"x_max":774,"o":"m 340 1155 q 340 1145 340 1155 q 327 1124 340 1136 q 297 1111 314 1111 q 266 1124 279 1111 q 253 1155 253 1136 q 267 1187 253 1174 q 297 1200 281 1200 q 327 1187 314 1200 q 340 1155 340 1174 m 664 1155 q 664 1145 664 1155 q 651 1124 664 1136 q 620 1111 638 1111 q 590 1124 603 1111 q 576 1155 576 1136 q 590 1187 576 1174 q 621 1200 604 1200 q 651 1187 638 1200 q 664 1155 664 1174 m 774 314 q 684 74 774 160 q 453 -11 594 -11 q 224 74 313 -11 q 136 314 136 160 l 136 972 l 188 972 l 188 318 q 261 110 188 185 q 454 35 335 35 q 648 110 574 35 q 722 318 722 185 l 722 972 l 774 972 l 774 314 z "},"Ý":{"ha":886,"x_min":57,"x_max":825,"o":"m 417 1111 l 542 1296 l 593 1296 l 463 1111 l 417 1111 m 468 365 l 467 0 l 417 0 l 417 365 l 57 972 l 108 972 l 425 443 l 442 406 l 443 406 l 458 443 l 774 972 l 825 972 l 468 365 z "},"Þ":{"ha":696,"x_min":139,"x_max":625,"o":"m 139 972 l 190 972 l 190 743 l 339 743 q 575 636 486 743 q 625 493 625 576 q 550 302 625 372 q 339 232 475 232 l 190 232 l 190 0 l 139 0 l 139 972 m 190 278 l 332 278 q 561 419 514 278 q 574 493 574 454 q 503 636 574 575 q 333 697 433 697 l 190 697 l 190 278 z "},"ß":{"ha":796,"x_min":31,"x_max":683,"o":"m 283 11 l 304 54 q 393 35 347 35 q 561 106 490 35 q 632 273 632 176 q 565 438 632 369 q 401 510 497 507 l 401 553 q 506 599 464 556 q 549 708 549 643 q 503 822 549 774 q 390 869 458 869 q 235 807 296 869 q 172 650 175 744 l 172 0 l 121 0 l 121 476 l 31 476 l 31 522 l 121 522 l 121 650 q 200 838 122 761 q 393 914 278 914 q 538 854 478 914 q 597 710 597 794 q 569 608 597 654 q 494 536 542 561 q 631 435 579 507 q 683 274 683 364 q 599 72 683 156 q 396 -11 514 -11 q 283 11 333 -11 z "},"à":{"ha":765,"x_min":68,"x_max":617,"o":"m 243 850 l 368 665 l 322 665 l 192 850 l 243 850 m 617 0 l 565 0 l 565 83 l 569 146 q 479 31 540 75 q 339 -12 418 -12 q 147 67 226 -12 q 68 259 68 147 q 147 451 68 371 q 339 531 226 531 q 478 489 419 531 q 565 378 536 447 l 572 521 l 617 521 l 617 0 m 119 260 q 119 212 119 260 q 181 99 119 164 q 340 33 243 33 q 498 99 436 33 q 560 260 560 164 q 498 421 560 357 q 340 485 436 485 q 181 421 243 485 q 119 260 119 357 z "},"á":{"ha":765,"x_min":68,"x_max":617,"o":"m 321 665 l 446 850 l 497 850 l 367 665 l 321 665 m 617 0 l 565 0 l 565 83 l 569 146 q 479 31 540 75 q 339 -12 418 -12 q 147 67 226 -12 q 68 259 68 147 q 147 451 68 371 q 339 531 226 531 q 478 489 419 531 q 565 378 536 447 l 572 521 l 617 521 l 617 0 m 119 260 q 119 212 119 260 q 181 99 119 164 q 340 33 243 33 q 498 99 436 33 q 560 260 560 164 q 498 421 560 357 q 340 485 436 485 q 181 421 243 485 q 119 260 119 357 z "},"â":{"ha":765,"x_min":68,"x_max":617,"o":"m 363 917 l 529 665 l 483 665 l 363 835 l 242 665 l 196 665 l 363 917 m 617 0 l 565 0 l 565 83 l 569 146 q 479 31 540 75 q 339 -12 418 -12 q 147 67 226 -12 q 68 259 68 147 q 147 451 68 371 q 339 531 226 531 q 478 489 419 531 q 565 378 536 447 l 572 521 l 617 521 l 617 0 m 119 260 q 119 212 119 260 q 181 99 119 164 q 340 33 243 33 q 498 99 436 33 q 560 260 560 164 q 498 421 560 357 q 340 485 436 485 q 181 421 243 485 q 119 260 119 357 z "},"ã":{"ha":765,"x_min":68,"x_max":617,"o":"m 510 738 q 479 663 507 688 q 412 638 451 638 q 332 677 372 638 q 271 717 292 717 q 211 651 218 717 l 172 656 q 203 731 175 706 q 268 756 231 756 q 348 716 306 756 q 411 676 390 676 q 471 742 464 676 l 510 738 m 617 0 l 565 0 l 565 83 l 569 146 q 479 31 540 75 q 339 -12 418 -12 q 147 67 226 -12 q 68 259 68 147 q 147 451 68 371 q 339 531 226 531 q 478 489 419 531 q 565 378 536 447 l 572 521 l 617 521 l 617 0 m 119 260 q 119 212 119 260 q 181 99 119 164 q 340 33 243 33 q 498 99 436 33 q 560 260 560 164 q 498 421 560 357 q 340 485 436 485 q 181 421 243 485 q 119 260 119 357 z "},"ä":{"ha":765,"x_min":68,"x_max":617,"o":"m 293 723 q 293 714 293 723 q 280 692 293 704 q 249 679 267 679 q 219 692 232 679 q 206 723 206 704 q 219 755 206 742 q 250 768 233 768 q 280 755 267 768 q 293 723 293 742 m 522 723 q 522 714 522 723 q 509 692 522 704 q 478 679 496 679 q 448 692 461 679 q 435 723 435 704 q 449 755 435 742 q 479 768 463 768 q 509 755 496 768 q 522 723 522 742 m 617 0 l 565 0 l 565 83 l 569 146 q 479 31 540 75 q 339 -12 418 -12 q 147 67 226 -12 q 68 259 68 147 q 147 451 68 371 q 339 531 226 531 q 478 489 419 531 q 565 378 536 447 l 572 521 l 617 521 l 617 0 m 119 260 q 119 212 119 260 q 181 99 119 164 q 340 33 243 33 q 498 99 436 33 q 560 260 560 164 q 498 421 560 357 q 340 485 436 485 q 181 421 243 485 q 119 260 119 357 z "},"å":{"ha":765,"x_min":68,"x_max":617,"o":"m 282 686 q 268 700 282 686 q 254 751 254 714 q 282 817 254 789 q 347 844 310 844 q 413 817 385 844 q 440 751 440 789 q 413 686 440 714 q 347 658 385 658 q 282 686 310 658 m 308 790 q 301 783 308 790 q 293 751 293 775 q 308 713 293 728 q 347 697 324 697 q 386 713 371 697 q 401 751 401 728 q 386 790 401 775 q 347 806 371 806 q 308 790 324 806 m 617 0 l 565 0 l 565 83 l 569 146 q 479 31 540 75 q 339 -12 418 -12 q 147 67 226 -12 q 68 259 68 147 q 147 451 68 371 q 339 531 226 531 q 478 489 419 531 q 565 378 536 447 l 572 521 l 617 521 l 617 0 m 119 260 q 119 212 119 260 q 181 99 119 164 q 340 33 243 33 q 498 99 436 33 q 560 260 560 164 q 498 421 560 357 q 340 485 436 485 q 181 421 243 485 q 119 260 119 357 z "},"æ":{"ha":874,"x_min":68,"x_max":811,"o":"m 147 447 l 113 481 q 189 517 139 503 q 285 532 239 532 q 442 496 390 532 q 581 529 501 529 q 722 478 660 529 q 811 342 783 426 l 500 221 l 500 75 q 506 40 500 53 q 571 32 536 32 q 721 89 660 32 l 756 61 q 582 -14 678 -14 q 421 32 486 -14 q 276 -11 372 -11 q 124 22 181 -11 q 68 131 68 56 q 128 237 68 206 q 278 268 188 268 l 449 268 l 449 332 q 417 451 449 415 q 283 486 385 486 q 209 474 250 486 q 147 447 168 463 m 449 222 l 285 222 q 163 205 206 222 q 119 138 119 188 q 284 35 119 35 q 449 144 449 35 l 449 222 m 571 483 q 474 463 515 483 q 500 338 500 421 l 500 271 l 751 369 q 571 483 694 483 z "},"ç":{"ha":535,"x_min":39,"x_max":490,"o":"m 268 -7 q 104 84 169 8 q 39 265 39 160 q 118 451 39 371 q 306 531 197 531 q 490 461 414 531 l 463 426 q 307 485 400 485 q 152 421 214 485 q 90 260 90 357 q 152 99 90 163 q 307 35 214 35 q 463 93 400 35 l 490 58 q 319 -11 418 -7 q 339 -58 319 -46 q 358 -71 346 -64 q 426 -190 426 -108 q 390 -292 426 -250 q 296 -335 353 -335 q 147 -235 182 -335 l 194 -224 q 228 -272 203 -253 q 291 -290 253 -290 q 356 -262 329 -290 q 383 -190 383 -233 q 349 -112 383 -146 q 320 -94 339 -106 q 292 -75 301 -82 q 268 -22 268 -57 l 268 -7 z "},"è":{"ha":626,"x_min":54,"x_max":565,"o":"m 197 850 l 322 665 l 276 665 l 146 850 l 197 850 m 565 342 l 121 169 q 199 69 146 107 q 333 32 253 32 q 475 89 414 32 l 510 61 q 322 -14 432 -14 q 133 66 213 -14 q 54 258 54 146 q 133 449 54 369 q 325 529 213 529 q 476 478 414 529 q 565 342 538 426 m 106 258 q 108 215 106 243 l 506 369 q 325 483 449 483 q 167 419 229 483 q 106 258 106 356 z "},"é":{"ha":626,"x_min":54,"x_max":565,"o":"m 321 665 l 446 850 l 497 850 l 367 665 l 321 665 m 565 342 l 121 169 q 199 69 146 107 q 333 32 253 32 q 475 89 414 32 l 510 61 q 322 -14 432 -14 q 133 66 213 -14 q 54 258 54 146 q 133 449 54 369 q 325 529 213 529 q 476 478 414 529 q 565 342 538 426 m 106 258 q 108 215 106 243 l 506 369 q 325 483 449 483 q 167 419 229 483 q 106 258 106 356 z "},"ê":{"ha":626,"x_min":54,"x_max":565,"o":"m 322 917 l 489 665 l 443 665 l 322 835 l 201 665 l 156 665 l 322 917 m 565 342 l 121 169 q 199 69 146 107 q 333 32 253 32 q 475 89 414 32 l 510 61 q 322 -14 432 -14 q 133 66 213 -14 q 54 258 54 146 q 133 449 54 369 q 325 529 213 529 q 476 478 414 529 q 565 342 538 426 m 106 258 q 108 215 106 243 l 506 369 q 325 483 449 483 q 167 419 229 483 q 106 258 106 356 z "},"ë":{"ha":626,"x_min":54,"x_max":565,"o":"m 260 723 q 260 714 260 723 q 247 692 260 704 q 216 679 233 679 q 185 692 199 679 q 172 723 172 704 q 186 755 172 742 q 217 768 200 768 q 247 755 233 768 q 260 723 260 742 m 489 723 q 489 714 489 723 q 476 692 489 704 q 445 679 463 679 q 415 692 428 679 q 401 723 401 704 q 415 755 401 742 q 446 768 429 768 q 476 755 463 768 q 489 723 489 742 m 565 342 l 121 169 q 199 69 146 107 q 333 32 253 32 q 475 89 414 32 l 510 61 q 322 -14 432 -14 q 133 66 213 -14 q 54 258 54 146 q 133 449 54 369 q 325 529 213 529 q 476 478 414 529 q 565 342 538 426 m 106 258 q 108 215 106 243 l 506 369 q 325 483 449 483 q 167 419 229 483 q 106 258 106 356 z "},"ì":{"ha":242,"x_min":-42,"x_max":135,"o":"m 135 0 l 85 0 l 85 521 l 135 521 l 135 0 m 10 850 l 135 665 l 89 665 l -42 850 l 10 850 z "},"í":{"ha":269,"x_min":85,"x_max":267,"o":"m 135 0 l 85 0 l 85 521 l 135 521 l 135 0 m 90 665 l 215 850 l 267 850 l 136 665 l 90 665 z "},"î":{"ha":332,"x_min":-6,"x_max":328,"o":"m 161 917 l 328 665 l 282 665 l 161 835 l 40 665 l -6 665 l 161 917 m 185 0 l 135 0 l 135 521 l 185 521 l 185 0 z "},"ï":{"ha":376,"x_min":32,"x_max":349,"o":"m 219 0 l 169 0 l 169 521 l 219 521 l 219 0 m 119 723 q 119 714 119 723 q 106 692 119 704 q 76 679 93 679 q 45 692 58 679 q 32 723 32 704 q 46 755 32 742 q 76 768 60 768 q 106 755 93 768 q 119 723 119 742 m 349 723 q 349 714 349 723 q 335 692 349 704 q 305 679 322 679 q 274 692 288 679 q 261 723 261 704 q 275 755 261 742 q 306 768 289 768 q 335 755 322 768 q 349 723 349 742 z "},"ð":{"ha":685,"x_min":50,"x_max":593,"o":"m 229 732 l 197 764 l 296 864 l 296 865 q 169 992 231 939 l 203 1025 q 332 899 254 985 l 428 996 l 461 964 l 363 865 q 521 585 451 756 q 593 260 590 415 q 514 67 593 147 q 322 -12 435 -12 q 129 67 208 -12 q 50 259 50 147 q 129 451 50 371 q 321 531 208 531 q 511 453 433 531 q 325 828 454 654 l 229 732 m 101 260 q 101 212 101 260 q 163 99 101 164 q 322 33 225 33 q 480 99 418 33 q 542 260 542 164 q 480 421 542 357 q 322 485 418 485 q 163 421 225 485 q 101 260 101 357 z "},"ñ":{"ha":726,"x_min":139,"x_max":594,"o":"m 557 738 q 526 663 554 688 q 459 638 499 638 q 379 677 419 638 q 318 717 339 717 q 258 651 265 717 l 219 656 q 250 731 222 706 q 315 756 278 756 q 395 716 353 756 q 458 676 438 676 q 518 742 511 676 l 557 738 m 594 0 l 543 0 l 543 375 q 508 451 540 421 q 415 485 476 482 q 257 429 324 485 q 190 290 190 374 l 190 0 l 139 0 l 139 519 l 185 519 l 190 381 q 278 489 219 449 q 416 530 338 529 q 543 488 494 531 q 594 375 592 444 l 594 0 z "},"ò":{"ha":651,"x_min":50,"x_max":593,"o":"m 197 850 l 322 665 l 276 665 l 146 850 l 197 850 m 593 260 q 593 203 593 260 q 514 67 593 147 q 322 -12 435 -12 q 129 67 208 -12 q 50 259 50 147 q 129 451 50 371 q 322 531 208 531 q 514 451 435 531 q 593 260 593 372 m 101 260 q 101 212 101 260 q 163 99 101 164 q 322 33 225 33 q 480 99 418 33 q 542 260 542 164 q 480 421 542 357 q 322 485 418 485 q 163 421 225 485 q 101 260 101 357 z "},"ó":{"ha":651,"x_min":50,"x_max":593,"o":"m 321 665 l 446 850 l 497 850 l 367 665 l 321 665 m 593 260 q 593 203 593 260 q 514 67 593 147 q 322 -12 435 -12 q 129 67 208 -12 q 50 259 50 147 q 129 451 50 371 q 322 531 208 531 q 514 451 435 531 q 593 260 593 372 m 101 260 q 101 212 101 260 q 163 99 101 164 q 322 33 225 33 q 480 99 418 33 q 542 260 542 164 q 480 421 542 357 q 322 485 418 485 q 163 421 225 485 q 101 260 101 357 z "},"ô":{"ha":651,"x_min":50,"x_max":593,"o":"m 322 917 l 489 665 l 443 665 l 322 835 l 201 665 l 156 665 l 322 917 m 593 260 q 593 203 593 260 q 514 67 593 147 q 322 -12 435 -12 q 129 67 208 -12 q 50 259 50 147 q 129 451 50 371 q 322 531 208 531 q 514 451 435 531 q 593 260 593 372 m 101 260 q 101 212 101 260 q 163 99 101 164 q 322 33 225 33 q 480 99 418 33 q 542 260 542 164 q 480 421 542 357 q 322 485 418 485 q 163 421 225 485 q 101 260 101 357 z "},"õ":{"ha":651,"x_min":50,"x_max":593,"o":"m 486 738 q 456 663 483 688 q 388 638 428 638 q 308 677 349 638 q 247 717 268 717 q 188 651 194 717 l 149 656 q 179 731 151 706 q 244 756 207 756 q 324 716 282 756 q 388 676 367 676 q 447 742 440 676 l 486 738 m 593 260 q 593 203 593 260 q 514 67 593 147 q 322 -12 435 -12 q 129 67 208 -12 q 50 259 50 147 q 129 451 50 371 q 322 531 208 531 q 514 451 435 531 q 593 260 593 372 m 101 260 q 101 212 101 260 q 163 99 101 164 q 322 33 225 33 q 480 99 418 33 q 542 260 542 164 q 480 421 542 357 q 322 485 418 485 q 163 421 225 485 q 101 260 101 357 z "},"ö":{"ha":651,"x_min":50,"x_max":593,"o":"m 260 723 q 260 714 260 723 q 247 692 260 704 q 216 679 233 679 q 185 692 199 679 q 172 723 172 704 q 186 755 172 742 q 217 768 200 768 q 247 755 233 768 q 260 723 260 742 m 489 723 q 489 714 489 723 q 476 692 489 704 q 445 679 463 679 q 415 692 428 679 q 401 723 401 704 q 415 755 401 742 q 446 768 429 768 q 476 755 463 768 q 489 723 489 742 m 593 260 q 593 203 593 260 q 514 67 593 147 q 322 -12 435 -12 q 129 67 208 -12 q 50 259 50 147 q 129 451 50 371 q 322 531 208 531 q 514 451 435 531 q 593 260 593 372 m 101 260 q 101 212 101 260 q 163 99 101 164 q 322 33 225 33 q 480 99 418 33 q 542 260 542 164 q 480 421 542 357 q 322 485 418 485 q 163 421 225 485 q 101 260 101 357 z "},"÷":{"ha":696,"x_min":94,"x_max":594,"o":"m 392 141 q 392 132 392 141 q 378 110 392 122 q 348 97 365 97 q 317 110 331 97 q 304 141 304 122 q 318 173 304 160 q 349 186 332 186 q 378 173 365 186 q 392 141 392 160 m 392 490 q 392 480 392 490 q 378 458 392 471 q 348 446 365 446 q 317 458 331 446 q 304 490 304 471 q 318 522 304 508 q 349 535 332 535 q 378 522 365 535 q 392 490 392 508 m 594 299 l 94 299 l 94 344 l 594 344 l 594 299 z "},"ø":{"ha":651,"x_min":50,"x_max":593,"o":"m 593 262 q 593 205 593 262 q 514 67 593 147 q 331 -12 435 -12 q 157 42 228 -12 l 101 -24 l 67 7 l 124 74 q 50 261 50 151 q 129 451 50 371 q 321 531 208 531 q 474 485 406 531 l 528 549 l 563 521 l 508 457 q 593 262 593 376 m 186 76 q 330 33 242 33 q 480 99 418 33 q 542 260 542 164 q 479 422 542 357 l 186 76 m 321 485 q 163 421 225 485 q 101 263 101 357 q 153 110 101 169 l 443 450 q 321 485 392 485 z "},"ù":{"ha":735,"x_min":139,"x_max":594,"o":"m 243 850 l 368 665 l 322 665 l 192 850 l 243 850 m 594 0 l 543 0 l 543 83 l 547 146 q 458 41 518 79 q 319 0 397 3 q 190 43 239 0 q 139 156 142 86 l 139 521 l 190 521 l 190 156 q 225 79 193 110 q 318 46 257 49 q 476 101 410 46 q 543 240 543 157 l 543 531 l 594 531 l 594 0 z "},"ú":{"ha":735,"x_min":139,"x_max":594,"o":"m 321 665 l 446 850 l 497 850 l 367 665 l 321 665 m 594 0 l 543 0 l 543 83 l 547 146 q 458 41 518 79 q 319 0 397 3 q 190 43 239 0 q 139 156 142 86 l 139 521 l 190 521 l 190 156 q 225 79 193 110 q 318 46 257 49 q 476 101 410 46 q 543 240 543 157 l 543 531 l 594 531 l 594 0 z "},"û":{"ha":735,"x_min":139,"x_max":594,"o":"m 369 917 l 536 665 l 490 665 l 369 835 l 249 665 l 203 665 l 369 917 m 594 0 l 543 0 l 543 83 l 547 146 q 458 41 518 79 q 319 0 397 3 q 190 43 239 0 q 139 156 142 86 l 139 521 l 190 521 l 190 156 q 225 79 193 110 q 318 46 257 49 q 476 101 410 46 q 543 240 543 157 l 543 531 l 594 531 l 594 0 z "},"ü":{"ha":735,"x_min":139,"x_max":594,"o":"m 290 722 q 290 712 290 722 q 277 690 290 703 q 247 678 264 678 q 216 690 229 678 q 203 722 203 703 q 217 753 203 740 q 247 767 231 767 q 277 753 264 767 q 290 722 290 740 m 519 722 q 519 712 519 722 q 506 690 519 703 q 476 678 493 678 q 445 690 458 678 q 432 722 432 703 q 446 753 432 740 q 476 767 460 767 q 506 753 493 767 q 519 722 519 740 m 594 0 l 543 0 l 543 83 l 547 146 q 458 41 518 79 q 319 0 397 3 q 190 43 239 0 q 139 156 142 86 l 139 521 l 190 521 l 190 156 q 225 79 193 110 q 318 46 257 49 q 476 101 410 46 q 543 240 543 157 l 543 531 l 594 531 l 594 0 z "},"ý":{"ha":678,"x_min":71,"x_max":629,"o":"m 335 665 l 460 850 l 511 850 l 381 665 l 335 665 m 192 -347 l 139 -347 l 322 21 l 71 521 l 125 521 l 350 72 l 575 521 l 629 521 l 192 -347 z "},"þ":{"ha":774,"x_min":139,"x_max":688,"o":"m 139 -349 l 139 1042 l 190 1042 l 190 378 q 278 489 219 447 q 417 531 336 531 q 608 451 529 531 q 688 259 688 371 q 608 67 688 147 q 417 -12 529 -12 q 281 28 340 -12 q 190 136 222 69 l 190 -349 l 139 -349 m 190 250 q 258 95 194 157 q 417 33 322 33 q 574 99 513 33 q 636 260 636 164 q 574 421 636 357 q 417 485 513 485 q 258 424 322 485 q 190 269 194 363 l 190 250 z "},"ÿ":{"ha":678,"x_min":71,"x_max":629,"o":"m 283 722 q 283 712 283 722 q 270 690 283 703 q 240 678 257 678 q 209 690 222 678 q 196 722 196 703 q 210 753 196 740 q 240 767 224 767 q 270 753 257 767 q 283 722 283 740 m 513 722 q 513 712 513 722 q 499 690 513 703 q 469 678 486 678 q 438 690 451 678 q 425 722 425 703 q 439 753 425 740 q 469 767 453 767 q 499 753 486 767 q 513 722 513 740 m 192 -347 l 139 -347 l 322 21 l 71 521 l 125 521 l 350 72 l 575 521 l 629 521 l 192 -347 z "},"Ā":{"ha":1028,"x_min":85,"x_max":946,"o":"m 946 0 l 892 0 l 715 417 l 315 417 l 139 0 l 85 0 l 515 1017 l 946 0 m 501 856 l 335 464 l 694 464 l 529 856 l 515 900 l 501 856 m 354 1122 l 354 1168 l 674 1168 l 674 1122 l 354 1122 z "},"ā":{"ha":765,"x_min":68,"x_max":617,"o":"m 617 0 l 565 0 l 565 83 l 569 146 q 479 31 540 75 q 339 -12 418 -12 q 147 67 226 -12 q 68 259 68 147 q 147 451 68 371 q 339 531 226 531 q 478 489 419 531 q 565 378 536 447 l 572 521 l 617 521 l 617 0 m 119 260 q 119 212 119 260 q 181 99 119 164 q 340 33 243 33 q 498 99 436 33 q 560 260 560 164 q 498 421 560 357 q 340 485 436 485 q 181 421 243 485 q 119 260 119 357 m 222 671 l 222 717 l 542 717 l 542 671 l 222 671 z "},"Ă":{"ha":1028,"x_min":85,"x_max":946,"o":"m 946 0 l 892 0 l 715 417 l 315 417 l 139 0 l 85 0 l 515 1017 l 946 0 m 501 856 l 335 464 l 694 464 l 529 856 l 515 900 l 501 856 m 673 1128 q 640 1097 673 1128 q 515 1065 607 1065 q 357 1128 424 1065 q 289 1283 290 1192 l 335 1283 q 387 1158 336 1206 q 516 1110 438 1110 q 644 1157 594 1110 q 694 1283 693 1204 l 739 1283 q 673 1128 739 1192 z "},"ă":{"ha":765,"x_min":68,"x_max":617,"o":"m 617 0 l 565 0 l 565 83 l 569 146 q 479 31 540 75 q 339 -12 418 -12 q 147 67 226 -12 q 68 259 68 147 q 147 451 68 371 q 339 531 226 531 q 478 489 419 531 q 565 378 536 447 l 572 521 l 617 521 l 617 0 m 119 260 q 119 212 119 260 q 181 99 119 164 q 340 33 243 33 q 498 99 436 33 q 560 260 560 164 q 498 421 560 357 q 340 485 436 485 q 181 421 243 485 q 119 260 119 357 m 524 702 q 491 670 524 702 q 367 639 458 639 q 208 702 275 639 q 140 857 142 765 l 186 857 q 238 731 188 779 q 367 683 289 683 q 495 731 446 683 q 546 857 544 778 l 590 857 q 524 702 590 765 z "},"Ą":{"ha":1028,"x_min":85,"x_max":946,"o":"m 913 -290 l 913 -335 q 809 -292 846 -335 q 772 -185 772 -250 q 822 -82 772 -119 q 842 -70 826 -79 q 867 -54 857 -61 q 892 0 892 -35 l 715 417 l 315 417 l 139 0 l 85 0 l 515 1017 l 946 0 q 928 -49 946 -31 q 903 -74 910 -67 q 850 -112 885 -89 q 815 -190 815 -146 q 842 -262 815 -233 q 913 -290 869 -290 m 515 889 l 335 464 l 694 464 l 515 889 z "},"ą":{"ha":765,"x_min":68,"x_max":617,"o":"m 586 -290 l 586 -335 q 483 -292 519 -335 q 446 -185 446 -250 q 496 -82 446 -119 q 515 -70 500 -79 q 539 -54 531 -61 q 565 0 565 -35 l 565 83 l 569 146 q 479 31 540 75 q 339 -12 418 -12 q 147 67 226 -12 q 68 259 68 147 q 147 451 68 371 q 339 531 226 531 q 478 489 419 531 q 565 378 536 447 l 572 521 l 617 521 l 617 0 q 567 -81 617 -42 l 544 -97 q 524 -112 528 -110 q 489 -190 489 -146 q 516 -262 489 -233 q 586 -290 543 -290 m 119 260 q 119 212 119 260 q 181 99 119 164 q 340 33 243 33 q 498 99 436 33 q 560 260 560 164 q 498 421 560 357 q 340 485 436 485 q 181 421 243 485 q 119 260 119 357 z "},"Ć":{"ha":931,"x_min":86,"x_max":833,"o":"m 794 94 l 833 57 q 582 -11 717 -11 q 231 134 376 -11 q 86 485 86 279 q 231 838 86 692 q 582 983 376 983 q 832 917 718 983 l 796 876 q 582 932 693 932 q 268 800 399 932 q 138 485 138 668 q 268 171 138 301 q 582 40 399 40 q 794 94 694 40 m 556 1117 l 681 1301 l 732 1301 l 601 1117 l 556 1117 z "},"ć":{"ha":535,"x_min":39,"x_max":490,"o":"m 118 69 q 78 109 118 69 q 39 260 39 149 q 118 451 39 371 q 306 531 197 531 q 490 461 414 531 l 463 426 q 307 485 400 485 q 152 421 214 485 q 90 260 90 357 q 152 99 90 163 q 307 35 214 35 q 463 93 400 35 l 490 58 q 306 -11 414 -11 q 118 69 197 -11 m 297 665 l 422 850 l 474 850 l 343 665 l 297 665 z "},"Ĉ":{"ha":931,"x_min":86,"x_max":833,"o":"m 794 94 l 833 57 q 582 -11 717 -11 q 231 134 376 -11 q 86 485 86 279 q 231 838 86 692 q 582 983 376 983 q 832 917 718 983 l 796 876 q 582 932 693 932 q 268 800 399 932 q 138 485 138 668 q 268 171 138 301 q 582 40 399 40 q 794 94 694 40 m 578 1368 l 744 1117 l 699 1117 l 578 1286 l 457 1117 l 411 1117 l 578 1368 z "},"ĉ":{"ha":535,"x_min":39,"x_max":490,"o":"m 118 69 q 78 109 118 69 q 39 260 39 149 q 118 451 39 371 q 306 531 197 531 q 490 461 414 531 l 463 426 q 307 485 400 485 q 152 421 214 485 q 90 260 90 357 q 152 99 90 163 q 307 35 214 35 q 463 93 400 35 l 490 58 q 306 -11 414 -11 q 118 69 197 -11 m 314 917 l 481 665 l 435 665 l 314 835 l 193 665 l 147 665 l 314 917 z "},"Ċ":{"ha":931,"x_min":86,"x_max":833,"o":"m 794 94 l 833 57 q 582 -11 717 -11 q 231 134 376 -11 q 86 485 86 279 q 231 838 86 692 q 582 983 376 983 q 832 917 718 983 l 796 876 q 582 932 693 932 q 268 800 399 932 q 138 485 138 668 q 268 171 138 301 q 582 40 399 40 q 794 94 694 40 m 625 1191 q 625 1182 625 1191 q 612 1160 625 1172 q 581 1147 599 1147 q 551 1160 564 1147 q 538 1191 538 1172 q 551 1223 538 1210 q 582 1236 565 1236 q 612 1223 599 1236 q 625 1191 625 1210 z "},"ċ":{"ha":535,"x_min":39,"x_max":490,"o":"m 351 723 q 351 714 351 723 q 338 692 351 704 q 308 679 325 679 q 277 692 290 679 q 264 723 264 704 q 278 755 264 742 q 308 768 292 768 q 338 755 325 768 q 351 723 351 742 m 118 69 q 78 109 118 69 q 39 260 39 149 q 118 451 39 371 q 306 531 197 531 q 490 461 414 531 l 463 426 q 307 485 400 485 q 152 421 214 485 q 90 260 90 357 q 152 99 90 163 q 307 35 214 35 q 463 93 400 35 l 490 58 q 306 -11 414 -11 q 118 69 197 -11 z "},"Č":{"ha":931,"x_min":86,"x_max":833,"o":"m 794 94 l 833 57 q 582 -11 717 -11 q 231 134 376 -11 q 86 485 86 279 q 231 838 86 692 q 582 983 376 983 q 832 917 718 983 l 796 876 q 582 932 693 932 q 268 800 399 932 q 138 485 138 668 q 268 171 138 301 q 582 40 399 40 q 794 94 694 40 m 750 1397 l 583 1146 l 417 1397 l 463 1397 l 583 1228 l 704 1397 l 750 1397 z "},"č":{"ha":535,"x_min":39,"x_max":490,"o":"m 118 69 q 78 109 118 69 q 39 260 39 149 q 118 451 39 371 q 306 531 197 531 q 490 461 414 531 l 463 426 q 307 485 400 485 q 152 421 214 485 q 90 260 90 357 q 152 99 90 163 q 307 35 214 35 q 463 93 400 35 l 490 58 q 306 -11 414 -11 q 118 69 197 -11 m 476 946 l 310 694 l 143 946 l 189 946 l 310 776 l 431 946 l 476 946 z "},"Ď":{"ha":906,"x_min":114,"x_max":806,"o":"m 114 0 l 114 972 l 307 972 q 661 838 517 972 q 806 486 806 703 q 683 161 806 307 q 511 44 621 89 q 258 0 401 0 l 114 0 m 165 926 l 165 46 l 282 46 q 620 167 486 46 q 754 486 754 289 q 620 805 754 683 q 282 926 486 926 l 165 926 m 619 1397 l 453 1146 l 286 1397 l 332 1397 l 453 1228 l 574 1397 l 619 1397 z "},"ď":{"ha":954,"x_min":68,"x_max":893,"o":"m 617 0 l 565 0 l 565 83 l 569 146 q 479 31 540 75 q 339 -12 418 -12 q 147 67 226 -12 q 68 259 68 147 q 147 451 68 371 q 339 531 226 531 q 478 489 419 531 q 565 378 536 447 l 565 1042 l 617 1042 l 617 0 m 119 260 q 119 212 119 260 q 181 99 119 164 q 340 33 243 33 q 498 99 436 33 q 560 260 560 164 q 498 421 560 357 q 340 485 436 485 q 181 421 243 485 q 119 260 119 357 m 832 786 l 803 819 q 849 978 868 882 l 893 988 q 832 786 917 871 z "},"Đ":{"ha":906,"x_min":-19,"x_max":806,"o":"m -19 519 l -19 565 l 114 565 l 114 972 l 307 972 q 661 838 517 972 q 806 486 806 703 q 683 161 806 307 q 511 44 621 89 q 258 0 401 0 l 114 0 l 114 519 l -19 519 m 165 519 l 165 46 l 282 46 q 620 167 486 46 q 754 486 754 289 q 620 805 754 683 q 282 926 486 926 l 165 926 l 165 565 l 300 565 l 300 519 l 165 519 z "},"đ":{"ha":726,"x_min":68,"x_max":719,"o":"m 719 815 l 617 815 l 617 0 l 565 0 l 565 83 l 569 146 q 479 31 540 75 q 339 -12 418 -12 q 147 67 226 -12 q 68 259 68 147 q 147 451 68 371 q 339 531 226 531 q 478 489 419 531 q 565 378 536 447 l 565 815 l 464 815 l 464 861 l 565 861 l 565 1042 l 617 1042 l 617 861 l 719 861 l 719 815 m 119 260 q 119 212 119 260 q 181 99 119 164 q 340 33 243 33 q 498 99 436 33 q 560 260 560 164 q 498 421 560 357 q 340 485 436 485 q 181 421 243 485 q 119 260 119 357 z "},"Ē":{"ha":835,"x_min":126,"x_max":714,"o":"m 126 0 l 126 972 l 694 972 l 694 926 l 178 926 l 178 513 l 640 513 l 640 467 l 178 467 l 178 46 l 714 46 l 714 0 l 126 0 m 257 1122 l 257 1168 l 576 1168 l 576 1122 l 257 1122 z "},"ē":{"ha":626,"x_min":54,"x_max":565,"o":"m 565 342 l 121 169 q 199 69 146 107 q 333 32 253 32 q 475 89 414 32 l 510 61 q 322 -14 432 -14 q 133 66 213 -14 q 54 258 54 146 q 133 449 54 369 q 325 529 213 529 q 476 478 414 529 q 565 342 538 426 m 106 258 q 108 215 106 243 l 506 369 q 325 483 449 483 q 167 419 229 483 q 106 258 106 356 m 153 671 l 153 717 l 472 717 l 472 671 l 153 671 z "},"Ĕ":{"ha":835,"x_min":126,"x_max":714,"o":"m 126 0 l 126 972 l 694 972 l 694 926 l 178 926 l 178 513 l 640 513 l 640 467 l 178 467 l 178 46 l 714 46 l 714 0 l 126 0 m 576 1128 q 543 1097 576 1128 q 418 1065 510 1065 q 260 1128 326 1065 q 192 1283 193 1192 l 238 1283 q 290 1158 239 1206 q 419 1110 340 1110 q 547 1157 497 1110 q 597 1283 596 1204 l 642 1283 q 576 1128 642 1192 z "},"ĕ":{"ha":626,"x_min":54,"x_max":565,"o":"m 565 342 l 121 169 q 199 69 146 107 q 333 32 253 32 q 475 89 414 32 l 510 61 q 322 -14 432 -14 q 133 66 213 -14 q 54 258 54 146 q 133 449 54 369 q 325 529 213 529 q 476 478 414 529 q 565 342 538 426 m 106 258 q 108 215 106 243 l 506 369 q 325 483 449 483 q 167 419 229 483 q 106 258 106 356 m 473 702 q 440 670 473 702 q 315 639 407 639 q 157 702 224 639 q 89 857 90 765 l 135 857 q 187 731 136 779 q 316 683 238 683 q 444 731 394 683 q 494 857 493 778 l 539 857 q 473 702 539 765 z "},"Ė":{"ha":835,"x_min":126,"x_max":714,"o":"m 126 0 l 126 972 l 694 972 l 694 926 l 178 926 l 178 513 l 640 513 l 640 467 l 178 467 l 178 46 l 714 46 l 714 0 l 126 0 m 461 1191 q 461 1182 461 1191 q 448 1160 461 1172 q 417 1147 435 1147 q 387 1160 400 1147 q 374 1191 374 1172 q 388 1223 374 1210 q 418 1236 401 1236 q 448 1223 435 1236 q 461 1191 461 1210 z "},"ė":{"ha":626,"x_min":54,"x_max":565,"o":"m 351 723 q 351 714 351 723 q 338 692 351 704 q 308 679 325 679 q 277 692 290 679 q 264 723 264 704 q 278 755 264 742 q 308 768 292 768 q 338 755 325 768 q 351 723 351 742 m 565 342 l 121 169 q 199 69 146 107 q 333 32 253 32 q 475 89 414 32 l 510 61 q 322 -14 432 -14 q 133 66 213 -14 q 54 258 54 146 q 133 449 54 369 q 325 529 213 529 q 476 478 414 529 q 565 342 538 426 m 106 258 q 108 215 106 243 l 506 369 q 325 483 449 483 q 167 419 229 483 q 106 258 106 356 z "},"Ę":{"ha":835,"x_min":126,"x_max":714,"o":"m 126 0 l 126 972 l 694 972 l 694 926 l 178 926 l 178 513 l 640 513 l 640 467 l 178 467 l 178 46 l 714 46 l 714 0 q 700 -46 714 -24 q 673 -80 686 -68 q 632 -112 660 -92 q 597 -190 597 -146 q 624 -262 597 -233 q 694 -290 651 -290 l 694 -335 q 591 -292 628 -335 q 554 -185 554 -250 q 604 -82 554 -119 q 624 -70 608 -79 q 647 -54 639 -61 q 674 0 674 -35 l 126 0 z "},"ę":{"ha":626,"x_min":54,"x_max":565,"o":"m 386 -290 l 386 -335 q 283 -292 319 -335 q 246 -185 246 -250 q 296 -82 246 -119 q 314 -71 300 -79 q 336 -56 328 -62 q 364 -11 361 -37 q 325 -14 339 -14 q 133 66 213 -14 q 54 258 54 146 q 133 449 54 369 q 325 529 213 529 q 476 478 414 529 q 565 342 538 426 l 121 169 q 199 69 146 107 q 333 32 253 32 q 475 89 414 32 l 510 61 q 406 -1 467 17 q 391 -47 406 -25 q 364 -81 376 -69 l 324 -112 q 289 -190 289 -146 q 316 -262 289 -233 q 386 -290 343 -290 m 106 258 q 108 215 106 243 l 506 369 q 325 483 449 483 q 167 419 229 483 q 106 258 106 356 z "},"Ě":{"ha":835,"x_min":126,"x_max":714,"o":"m 126 0 l 126 972 l 694 972 l 694 926 l 178 926 l 178 513 l 640 513 l 640 467 l 178 467 l 178 46 l 714 46 l 714 0 l 126 0 m 583 1397 l 417 1146 l 250 1397 l 296 1397 l 417 1228 l 538 1397 l 583 1397 z "},"ě":{"ha":626,"x_min":54,"x_max":565,"o":"m 565 342 l 121 169 q 199 69 146 107 q 333 32 253 32 q 475 89 414 32 l 510 61 q 322 -14 432 -14 q 133 66 213 -14 q 54 258 54 146 q 133 449 54 369 q 325 529 213 529 q 476 478 414 529 q 565 342 538 426 m 106 258 q 108 215 106 243 l 506 369 q 325 483 449 483 q 167 419 229 483 q 106 258 106 356 m 479 946 l 313 694 l 146 946 l 192 946 l 313 776 l 433 946 l 479 946 z "},"Ĝ":{"ha":961,"x_min":86,"x_max":853,"o":"m 853 904 l 815 865 q 582 932 707 932 q 268 800 399 932 q 138 485 138 668 q 268 171 138 301 q 582 40 399 40 q 788 90 690 40 l 788 328 q 782 361 788 353 q 756 369 776 369 l 579 369 l 579 417 l 771 417 q 824 397 810 417 q 838 333 838 378 l 838 61 q 582 -11 724 -11 q 231 134 376 -11 q 86 485 86 279 q 231 838 86 692 q 582 983 376 983 q 853 904 729 983 m 583 1368 l 750 1117 l 704 1117 l 583 1286 l 463 1117 l 417 1117 l 583 1368 z "},"ĝ":{"ha":719,"x_min":68,"x_max":617,"o":"m 136 -265 l 172 -236 q 342 -304 243 -304 q 503 -241 442 -304 q 565 -85 565 -178 l 565 83 l 569 146 q 479 31 540 75 q 339 -12 418 -12 q 147 67 226 -12 q 68 259 68 147 q 147 451 68 371 q 339 531 226 531 q 478 489 419 531 q 565 378 536 447 l 572 521 l 617 521 l 617 -85 q 538 -272 615 -196 q 341 -349 460 -349 q 136 -265 222 -349 m 119 260 q 119 212 119 260 q 181 99 119 164 q 340 33 243 33 q 498 99 436 33 q 560 260 560 164 q 498 421 560 357 q 340 485 436 485 q 181 421 243 485 q 119 260 119 357 m 360 917 l 526 665 l 481 665 l 360 835 l 239 665 l 193 665 l 360 917 z "},"Ğ":{"ha":961,"x_min":86,"x_max":853,"o":"m 853 904 l 815 865 q 582 932 707 932 q 268 800 399 932 q 138 485 138 668 q 268 171 138 301 q 582 40 399 40 q 788 90 690 40 l 788 328 q 782 361 788 353 q 756 369 776 369 l 579 369 l 579 417 l 771 417 q 824 397 810 417 q 838 333 838 378 l 838 61 q 582 -11 724 -11 q 231 134 376 -11 q 86 485 86 279 q 231 838 86 692 q 582 983 376 983 q 853 904 729 983 m 742 1209 q 709 1177 742 1209 q 585 1146 676 1146 q 426 1209 493 1146 q 358 1364 360 1272 l 404 1364 q 456 1238 406 1286 q 585 1190 507 1190 q 713 1238 664 1190 q 764 1364 763 1285 l 808 1364 q 742 1209 808 1272 z "},"ğ":{"ha":719,"x_min":68,"x_max":617,"o":"m 136 -265 l 172 -236 q 342 -304 243 -304 q 503 -241 442 -304 q 565 -85 565 -178 l 565 83 l 569 146 q 479 31 540 75 q 339 -12 418 -12 q 147 67 226 -12 q 68 259 68 147 q 147 451 68 371 q 339 531 226 531 q 478 489 419 531 q 565 378 536 447 l 572 521 l 617 521 l 617 -85 q 538 -272 615 -196 q 341 -349 460 -349 q 136 -265 222 -349 m 119 260 q 119 212 119 260 q 181 99 119 164 q 340 33 243 33 q 498 99 436 33 q 560 260 560 164 q 498 421 560 357 q 340 485 436 485 q 181 421 243 485 q 119 260 119 357 m 519 758 q 486 726 519 758 q 361 694 453 694 q 203 758 269 694 q 135 913 136 821 l 181 913 q 233 787 182 835 q 362 739 283 739 q 490 786 440 739 q 540 913 539 833 l 585 913 q 519 758 585 821 z "},"Ġ":{"ha":961,"x_min":86,"x_max":853,"o":"m 853 904 l 815 865 q 582 932 707 932 q 268 800 399 932 q 138 485 138 668 q 268 171 138 301 q 582 40 399 40 q 788 90 690 40 l 788 328 q 782 361 788 353 q 756 369 776 369 l 579 369 l 579 417 l 771 417 q 824 397 810 417 q 838 333 838 378 l 838 61 q 582 -11 724 -11 q 231 134 376 -11 q 86 485 86 279 q 231 838 86 692 q 582 983 376 983 q 853 904 729 983 m 628 1191 q 628 1182 628 1191 q 615 1160 628 1172 q 584 1147 601 1147 q 553 1160 567 1147 q 540 1191 540 1172 q 554 1223 540 1210 q 585 1236 568 1236 q 615 1223 601 1236 q 628 1191 628 1210 z "},"ġ":{"ha":719,"x_min":68,"x_max":617,"o":"m 403 723 q 403 714 403 723 q 390 692 403 704 q 359 679 376 679 q 328 692 342 679 q 315 723 315 704 q 329 755 315 742 q 360 768 343 768 q 390 755 376 768 q 403 723 403 742 m 136 -265 l 172 -236 q 342 -304 243 -304 q 503 -241 442 -304 q 565 -85 565 -178 l 565 83 l 569 146 q 479 31 540 75 q 339 -12 418 -12 q 147 67 226 -12 q 68 259 68 147 q 147 451 68 371 q 339 531 226 531 q 478 489 419 531 q 565 378 536 447 l 572 521 l 617 521 l 617 -85 q 538 -272 615 -196 q 341 -349 460 -349 q 136 -265 222 -349 m 119 260 q 119 212 119 260 q 181 99 119 164 q 340 33 243 33 q 498 99 436 33 q 560 260 560 164 q 498 421 560 357 q 340 485 436 485 q 181 421 243 485 q 119 260 119 357 z "},"Ģ":{"ha":961,"x_min":86,"x_max":853,"o":"m 611 -61 l 492 -347 l 449 -347 l 556 -61 l 611 -61 m 853 904 l 815 865 q 582 932 707 932 q 268 800 399 932 q 138 485 138 668 q 268 171 138 301 q 582 40 399 40 q 788 90 690 40 l 788 328 q 782 361 788 353 q 756 369 776 369 l 579 369 l 579 417 l 771 417 q 824 397 810 417 q 838 333 838 378 l 838 61 q 582 -11 724 -11 q 231 134 376 -11 q 86 485 86 279 q 231 838 86 692 q 582 983 376 983 q 853 904 729 983 z "},"ģ":{"ha":719,"x_min":68,"x_max":617,"o":"m 340 644 l 460 931 l 503 931 l 396 644 l 340 644 m 136 -265 l 172 -236 q 342 -304 243 -304 q 503 -241 442 -304 q 565 -85 565 -178 l 565 83 l 569 146 q 479 31 540 75 q 339 -12 418 -12 q 147 67 226 -12 q 68 259 68 147 q 147 451 68 371 q 339 531 226 531 q 478 489 419 531 q 565 378 536 447 l 572 521 l 617 521 l 617 -85 q 538 -272 615 -196 q 341 -349 460 -349 q 136 -265 222 -349 m 119 260 q 119 212 119 260 q 181 99 119 164 q 340 33 243 33 q 498 99 436 33 q 560 260 560 164 q 498 421 560 357 q 340 485 436 485 q 181 421 243 485 q 119 260 119 357 z "},"Ĥ":{"ha":972,"x_min":139,"x_max":833,"o":"m 139 0 l 139 972 l 190 972 l 190 513 l 782 513 l 782 972 l 833 972 l 833 0 l 782 0 l 782 467 l 190 467 l 190 0 l 139 0 m 486 1368 l 653 1117 l 607 1117 l 486 1286 l 365 1117 l 319 1117 l 486 1368 z "},"ĥ":{"ha":751,"x_min":139,"x_max":594,"o":"m 594 0 l 543 0 l 543 375 q 508 451 540 421 q 415 485 476 482 q 257 429 324 485 q 190 290 190 374 l 190 0 l 139 0 l 139 1042 l 190 1042 l 190 381 q 278 489 219 449 q 416 530 338 529 q 543 488 494 531 q 594 375 592 444 l 594 0 m 375 1363 l 542 1111 l 496 1111 l 375 1281 l 254 1111 l 208 1111 l 375 1363 z "},"Ħ":{"ha":972,"x_min":28,"x_max":953,"o":"m 28 694 l 28 740 l 139 740 l 139 972 l 190 972 l 190 740 l 782 740 l 782 972 l 833 972 l 833 740 l 953 740 l 953 694 l 833 694 l 833 0 l 782 0 l 782 467 l 190 467 l 190 0 l 139 0 l 139 694 l 28 694 m 190 513 l 782 513 l 782 694 l 190 694 l 190 513 z "},"ħ":{"ha":679,"x_min":6,"x_max":594,"o":"m 594 0 l 543 0 l 543 375 q 508 451 540 421 q 415 485 476 482 q 264 430 326 485 q 190 290 201 375 l 190 0 l 139 0 l 139 671 l 6 671 l 6 717 l 139 717 l 139 1042 l 190 1042 l 190 717 l 325 717 l 325 671 l 190 671 l 190 381 q 278 489 219 449 q 416 530 338 529 q 543 488 494 531 q 594 375 592 444 l 594 0 z "},"Ĩ":{"ha":328,"x_min":-4,"x_max":333,"o":"m 138 972 l 189 972 l 189 0 l 138 0 l 138 972 m 333 1188 q 303 1113 331 1138 q 235 1088 275 1088 q 156 1127 196 1088 q 94 1167 115 1167 q 35 1101 42 1167 l -4 1106 q 26 1181 -1 1156 q 92 1206 54 1206 q 172 1166 129 1206 q 235 1126 214 1126 q 294 1192 288 1126 l 333 1188 z "},"ĩ":{"ha":335,"x_min":-1,"x_max":336,"o":"m 192 0 l 140 0 l 140 521 l 192 521 l 192 0 m 336 736 q 306 661 333 686 q 238 636 278 636 q 158 676 199 636 q 97 715 118 715 q 38 650 44 715 l -1 654 q 29 729 1 704 q 94 754 57 754 q 174 715 132 754 q 238 675 217 675 q 297 740 290 675 l 336 736 z "},"Ī":{"ha":328,"x_min":4,"x_max":324,"o":"m 138 972 l 189 972 l 189 0 l 138 0 l 138 972 m 4 1122 l 4 1168 l 324 1168 l 324 1122 l 4 1122 z "},"ī":{"ha":335,"x_min":8,"x_max":328,"o":"m 192 0 l 140 0 l 140 521 l 192 521 l 192 0 m 8 671 l 8 717 l 328 717 l 328 671 l 8 671 z "},"Ĭ":{"ha":328,"x_min":-61,"x_max":389,"o":"m 138 972 l 189 972 l 189 0 l 138 0 l 138 972 m 323 1209 q 290 1177 323 1209 q 165 1146 257 1146 q 7 1209 74 1146 q -61 1364 -60 1272 l -15 1364 q 37 1238 -14 1286 q 166 1190 88 1190 q 294 1238 244 1190 q 344 1364 343 1285 l 389 1364 q 323 1209 389 1272 z "},"ĭ":{"ha":335,"x_min":-57,"x_max":393,"o":"m 192 0 l 140 0 l 140 521 l 192 521 l 192 0 m 327 758 q 294 726 327 758 q 169 694 261 694 q 11 758 78 694 q -57 913 -56 821 l -11 913 q 41 787 -10 835 q 170 739 92 739 q 298 786 249 739 q 349 913 347 833 l 393 913 q 327 758 393 821 z "},"Į":{"ha":328,"x_min":18,"x_max":189,"o":"m 138 972 l 189 972 l 189 0 q 139 -81 189 -42 l 117 -97 q 96 -112 100 -110 q 61 -190 61 -146 q 88 -262 61 -233 q 158 -290 115 -290 l 158 -335 q 55 -292 92 -335 q 18 -185 18 -250 q 68 -82 18 -119 q 88 -70 72 -79 q 111 -54 103 -61 q 138 0 138 -35 l 138 972 z "},"į":{"ha":319,"x_min":-18,"x_max":176,"o":"m 176 723 q 176 714 176 723 q 163 692 176 704 q 133 679 150 679 q 102 692 115 679 q 89 723 89 704 q 103 755 89 742 q 133 768 117 768 q 163 755 150 768 q 176 723 176 742 m 122 -290 l 122 -335 q 19 -292 56 -335 q -18 -185 -18 -250 q 32 -82 -18 -119 q 51 -70 36 -79 q 75 -54 67 -61 q 101 0 101 -35 l 101 521 l 153 521 l 153 0 q 103 -81 153 -42 l 81 -97 q 60 -112 64 -110 q 25 -190 25 -146 q 52 -262 25 -233 q 122 -290 79 -290 z "},"İ":{"ha":328,"x_min":119,"x_max":207,"o":"m 138 972 l 189 972 l 189 0 l 138 0 l 138 972 m 207 1191 q 207 1182 207 1191 q 194 1160 207 1172 q 163 1147 181 1147 q 133 1160 146 1147 q 119 1191 119 1172 q 133 1223 119 1210 q 164 1236 147 1236 q 194 1223 181 1236 q 207 1191 207 1210 z "},"ı":{"ha":303,"x_min":140,"x_max":192,"o":"m 192 0 l 140 0 l 140 521 l 192 521 l 192 0 z "},"Ĳ":{"ha":744,"x_min":138,"x_max":622,"o":"m 138 972 l 189 972 l 189 0 l 138 0 l 138 972 m 571 126 l 571 972 l 622 972 l 622 126 q 543 -61 621 15 q 353 -137 465 -137 l 353 -93 q 508 -31 447 -93 q 571 126 568 32 z "},"ĳ":{"ha":529,"x_min":89,"x_max":438,"o":"m 153 0 l 101 0 l 101 521 l 153 521 l 153 0 m 176 723 q 176 714 176 723 q 163 692 176 704 q 133 679 150 679 q 102 692 115 679 q 89 723 89 704 q 103 755 89 742 q 133 768 117 768 q 163 755 150 768 q 176 723 176 742 m 326 -347 l 292 -315 q 365 -149 364 -250 l 365 521 l 417 521 l 417 -149 q 326 -347 414 -269 m 438 723 q 438 714 438 723 q 424 692 438 704 q 394 679 411 679 q 363 692 376 679 q 350 723 350 704 q 364 755 350 742 q 394 768 378 768 q 424 755 411 768 q 438 723 438 742 z "},"Ĵ":{"ha":417,"x_min":25,"x_max":436,"o":"m 243 126 l 243 972 l 294 972 l 294 126 q 215 -61 293 15 q 25 -137 138 -137 l 25 -93 q 180 -31 119 -93 q 243 126 240 32 m 269 1368 l 436 1117 l 390 1117 l 269 1286 l 149 1117 l 103 1117 l 269 1368 z "},"ĵ":{"ha":313,"x_min":-1,"x_max":332,"o":"m 99 -347 l 64 -315 q 138 -149 136 -250 l 138 521 l 189 521 l 189 -149 q 99 -347 186 -269 m 165 917 l 332 665 l 286 665 l 165 835 l 44 665 l -1 665 l 165 917 z "},"Ķ":{"ha":785,"x_min":101,"x_max":760,"o":"m 417 -61 l 297 -347 l 254 -347 l 361 -61 l 417 -61 m 760 0 l 700 0 l 267 549 l 153 440 l 153 0 l 101 0 l 101 972 l 153 972 l 153 531 l 149 486 l 175 518 l 651 972 l 711 972 l 300 581 l 760 0 z "},"ķ":{"ha":624,"x_min":101,"x_max":526,"o":"m 336 -61 l 217 -347 l 174 -347 l 281 -61 l 336 -61 m 526 0 l 468 0 l 258 286 l 153 188 l 153 0 l 101 0 l 101 1042 l 151 1042 l 151 253 l 463 542 l 493 508 l 294 321 l 526 0 z "},"ĸ":{"ha":599,"x_min":101,"x_max":556,"o":"m 556 0 l 488 0 l 258 238 l 153 139 l 153 0 l 101 0 l 101 521 l 151 521 l 151 204 l 483 513 l 514 479 l 294 272 l 556 0 z "},"Ĺ":{"ha":824,"x_min":126,"x_max":714,"o":"m 126 0 l 126 972 l 178 972 l 178 46 l 714 46 l 714 0 l 126 0 m 135 1117 l 260 1301 l 311 1301 l 181 1117 l 135 1117 z "},"ĺ":{"ha":289,"x_min":104,"x_max":285,"o":"m 154 0 l 104 0 l 104 1042 l 154 1042 l 154 0 m 108 1111 l 233 1296 l 285 1296 l 154 1111 l 108 1111 z "},"Ļ":{"ha":824,"x_min":126,"x_max":714,"o":"m 472 -61 l 353 -347 l 310 -347 l 417 -61 l 472 -61 m 126 0 l 126 972 l 178 972 l 178 46 l 714 46 l 714 0 l 126 0 z "},"ļ":{"ha":289,"x_min":60,"x_max":222,"o":"m 222 -61 l 103 -347 l 60 -347 l 167 -61 l 222 -61 m 154 0 l 104 0 l 104 1042 l 154 1042 l 154 0 z "},"Ľ":{"ha":824,"x_min":126,"x_max":714,"o":"m 126 0 l 126 972 l 178 972 l 178 46 l 714 46 l 714 0 l 126 0 m 388 771 l 358 804 q 404 963 424 867 l 449 972 q 388 771 472 856 z "},"ľ":{"ha":517,"x_min":104,"x_max":456,"o":"m 154 0 l 104 0 l 104 1042 l 154 1042 l 154 0 m 394 786 l 365 819 q 411 978 431 882 l 456 988 q 394 786 479 871 z "},"Ŀ":{"ha":824,"x_min":126,"x_max":714,"o":"m 126 0 l 126 972 l 178 972 l 178 46 l 714 46 l 714 0 l 126 0 m 461 563 q 461 554 461 563 q 448 532 461 544 q 417 519 435 519 q 387 532 400 519 q 374 563 374 544 q 388 595 374 582 q 418 608 401 608 q 448 595 435 608 q 461 563 461 582 z "},"ŀ":{"ha":399,"x_min":104,"x_max":324,"o":"m 154 0 l 104 0 l 104 1042 l 154 1042 l 154 0 m 324 563 q 324 554 324 563 q 310 532 324 544 q 280 519 297 519 q 249 532 263 519 q 236 563 236 544 q 250 595 236 582 q 281 608 264 608 q 310 595 297 608 q 324 563 324 582 z "},"Ł":{"ha":778,"x_min":24,"x_max":714,"o":"m 126 0 l 126 310 l 24 260 l 24 311 l 126 361 l 126 972 l 178 972 l 178 386 l 438 513 l 438 463 l 178 335 l 178 46 l 714 46 l 714 0 l 126 0 z "},"ł":{"ha":394,"x_min":115,"x_max":296,"o":"m 231 0 l 181 0 l 181 376 l 115 344 l 115 396 l 181 428 l 181 1042 l 231 1042 l 231 451 l 296 483 l 296 432 l 231 400 l 231 0 z "},"Ń":{"ha":1129,"x_min":139,"x_max":988,"o":"m 988 972 l 988 -44 l 213 854 l 186 890 l 190 846 l 190 0 l 139 0 l 139 1017 l 914 118 l 940 82 l 936 126 l 936 972 l 988 972 m 556 1117 l 681 1301 l 732 1301 l 601 1117 l 556 1117 z "},"ń":{"ha":726,"x_min":139,"x_max":594,"o":"m 594 0 l 543 0 l 543 375 q 508 451 540 421 q 415 485 476 482 q 257 429 324 485 q 190 290 190 374 l 190 0 l 139 0 l 139 519 l 185 519 l 190 381 q 278 489 219 449 q 416 530 338 529 q 543 488 494 531 q 594 375 592 444 l 594 0 m 392 665 l 517 850 l 568 850 l 438 665 l 392 665 z "},"Ņ":{"ha":1129,"x_min":139,"x_max":988,"o":"m 585 -61 l 465 -347 l 422 -347 l 529 -61 l 585 -61 m 988 972 l 988 -44 l 213 854 l 186 890 l 190 846 l 190 0 l 139 0 l 139 1017 l 914 118 l 940 82 l 936 126 l 936 972 l 988 972 z "},"ņ":{"ha":726,"x_min":139,"x_max":594,"o":"m 443 -61 l 324 -347 l 281 -347 l 388 -61 l 443 -61 m 594 0 l 543 0 l 543 375 q 508 451 540 421 q 415 485 476 482 q 257 429 324 485 q 190 290 190 374 l 190 0 l 139 0 l 139 519 l 185 519 l 190 381 q 278 489 219 449 q 416 530 338 529 q 543 488 494 531 q 594 375 592 444 l 594 0 z "},"Ň":{"ha":1129,"x_min":139,"x_max":988,"o":"m 988 972 l 988 -44 l 213 854 l 186 890 l 190 846 l 190 0 l 139 0 l 139 1017 l 914 118 l 940 82 l 936 126 l 936 972 l 988 972 m 740 1397 l 574 1146 l 407 1397 l 453 1397 l 574 1228 l 694 1397 l 740 1397 z "},"ň":{"ha":726,"x_min":139,"x_max":594,"o":"m 594 0 l 543 0 l 543 375 q 508 451 540 421 q 415 485 476 482 q 257 429 324 485 q 190 290 190 374 l 190 0 l 139 0 l 139 519 l 185 519 l 190 381 q 278 489 219 449 q 416 530 338 529 q 543 488 494 531 q 594 375 592 444 l 594 0 m 565 946 l 399 694 l 232 946 l 278 946 l 399 776 l 519 946 l 565 946 z "},"ŉ":{"ha":800,"x_min":88,"x_max":668,"o":"m 88 656 l 88 1000 l 139 1000 l 133 656 l 88 656 m 668 0 l 617 0 l 617 375 q 582 451 614 421 q 489 485 550 482 q 331 429 397 485 q 264 290 264 374 l 264 0 l 213 0 l 213 519 l 258 519 l 264 381 q 352 489 293 449 q 490 530 411 529 q 617 488 568 531 q 668 375 665 444 l 668 0 z "},"Ŋ":{"ha":1129,"x_min":139,"x_max":988,"o":"m 988 944 l 988 -83 q 908 -271 986 -194 q 718 -347 831 -347 l 718 -303 q 873 -240 813 -303 q 936 -83 933 -178 l 936 15 l 190 879 l 190 0 l 139 0 l 139 1017 l 936 93 l 936 944 l 988 944 z "},"ŋ":{"ha":726,"x_min":139,"x_max":594,"o":"m 543 -83 l 543 375 q 508 451 540 421 q 415 485 476 482 q 264 430 326 485 q 190 290 201 375 l 190 0 l 139 0 l 139 519 l 185 519 l 190 381 q 278 489 219 449 q 416 530 338 529 q 543 488 494 531 q 594 375 592 444 l 594 -83 q 515 -271 593 -194 q 325 -347 438 -347 l 325 -303 q 480 -240 419 -303 q 543 -83 540 -178 z "},"Ō":{"ha":1167,"x_min":86,"x_max":1081,"o":"m 583 -11 q 480 -11 583 -11 q 231 134 376 -11 q 86 485 86 279 q 231 838 86 692 q 583 983 376 983 q 935 838 789 983 q 1081 485 1081 692 q 935 134 1081 279 q 583 -11 789 -11 m 268 800 q 203 734 268 800 q 138 485 138 668 q 268 171 138 301 q 582 40 399 40 q 897 171 765 40 q 1029 485 1029 301 q 897 800 1029 668 q 582 932 765 932 q 268 800 399 932 m 424 1122 l 424 1168 l 743 1168 l 743 1122 l 424 1122 z "},"ō":{"ha":651,"x_min":50,"x_max":593,"o":"m 593 260 q 593 203 593 260 q 514 67 593 147 q 322 -12 435 -12 q 129 67 208 -12 q 50 259 50 147 q 129 451 50 371 q 322 531 208 531 q 514 451 435 531 q 593 260 593 372 m 101 260 q 101 212 101 260 q 163 99 101 164 q 322 33 225 33 q 480 99 418 33 q 542 260 542 164 q 480 421 542 357 q 322 485 418 485 q 163 421 225 485 q 101 260 101 357 m 165 671 l 165 717 l 485 717 l 485 671 l 165 671 z "},"Ŏ":{"ha":1167,"x_min":86,"x_max":1081,"o":"m 583 -11 q 480 -11 583 -11 q 231 134 376 -11 q 86 485 86 279 q 231 838 86 692 q 583 983 376 983 q 935 838 789 983 q 1081 485 1081 692 q 935 134 1081 279 q 583 -11 789 -11 m 268 800 q 203 734 268 800 q 138 485 138 668 q 268 171 138 301 q 582 40 399 40 q 897 171 765 40 q 1029 485 1029 301 q 897 800 1029 668 q 582 932 765 932 q 268 800 399 932 m 745 1209 q 712 1177 745 1209 q 588 1146 679 1146 q 429 1209 496 1146 q 361 1364 363 1272 l 407 1364 q 459 1238 408 1286 q 588 1190 510 1190 q 716 1238 667 1190 q 767 1364 765 1285 l 811 1364 q 745 1209 811 1272 z "},"ŏ":{"ha":651,"x_min":50,"x_max":593,"o":"m 593 260 q 593 203 593 260 q 514 67 593 147 q 322 -12 435 -12 q 129 67 208 -12 q 50 259 50 147 q 129 451 50 371 q 322 531 208 531 q 514 451 435 531 q 593 260 593 372 m 101 260 q 101 212 101 260 q 163 99 101 164 q 322 33 225 33 q 480 99 418 33 q 542 260 542 164 q 480 421 542 357 q 322 485 418 485 q 163 421 225 485 q 101 260 101 357 m 488 758 q 455 726 488 758 q 331 694 422 694 q 172 758 239 694 q 104 913 106 821 l 150 913 q 202 787 151 835 q 331 739 253 739 q 459 786 410 739 q 510 913 508 833 l 554 913 q 488 758 554 821 z "},"Ő":{"ha":1167,"x_min":86,"x_max":1081,"o":"m 583 -11 q 480 -11 583 -11 q 231 134 376 -11 q 86 485 86 279 q 231 838 86 692 q 583 983 376 983 q 935 838 789 983 q 1081 485 1081 692 q 935 134 1081 279 q 583 -11 789 -11 m 268 800 q 203 734 268 800 q 138 485 138 668 q 268 171 138 301 q 582 40 399 40 q 897 171 765 40 q 1029 485 1029 301 q 897 800 1029 668 q 582 932 765 932 q 268 800 399 932 m 436 1117 l 561 1301 l 613 1301 l 482 1117 l 436 1117 m 671 1117 l 796 1301 l 847 1301 l 717 1117 l 671 1117 z "},"ő":{"ha":651,"x_min":50,"x_max":599,"o":"m 593 260 q 593 203 593 260 q 514 67 593 147 q 322 -12 435 -12 q 129 67 208 -12 q 50 259 50 147 q 129 451 50 371 q 322 531 208 531 q 514 451 435 531 q 593 260 593 372 m 101 260 q 101 212 101 260 q 163 99 101 164 q 322 33 225 33 q 480 99 418 33 q 542 260 542 164 q 480 421 542 357 q 322 485 418 485 q 163 421 225 485 q 101 260 101 357 m 188 665 l 313 850 l 364 850 l 233 665 l 188 665 m 422 665 l 547 850 l 599 850 l 468 665 l 422 665 z "},"Œ":{"ha":1528,"x_min":86,"x_max":1419,"o":"m 832 0 l 832 56 q 582 -11 714 -11 q 231 134 376 -11 q 86 485 86 279 q 231 838 86 692 q 582 983 376 983 q 832 917 718 983 l 832 972 l 1400 972 l 1400 926 l 883 926 l 883 513 l 1346 513 l 1346 467 l 883 467 l 883 46 l 1419 46 l 1419 0 l 832 0 m 582 40 q 832 117 718 40 l 832 853 q 582 932 718 932 q 268 800 399 932 q 138 485 138 668 q 268 171 138 301 q 582 40 399 40 z "},"œ":{"ha":993,"x_min":50,"x_max":906,"o":"m 906 342 l 461 169 q 540 69 486 107 q 674 32 593 32 q 815 89 754 32 l 850 61 q 669 -14 772 -14 q 493 47 567 -14 q 314 -12 419 -12 q 129 67 208 -12 q 50 259 50 147 q 129 451 50 371 q 313 531 208 531 q 494 468 418 531 q 662 529 569 529 q 816 478 754 529 q 906 342 878 426 m 461 81 q 394 258 394 156 q 463 436 394 361 q 314 485 403 485 q 163 421 225 485 q 101 260 101 357 q 163 99 101 164 q 314 33 225 33 q 461 81 403 33 m 446 258 q 449 215 446 243 l 846 369 q 665 483 789 483 q 508 419 569 483 q 446 258 446 356 z "},"Ŕ":{"ha":824,"x_min":139,"x_max":639,"o":"m 639 0 l 586 0 l 371 461 l 190 461 l 190 0 l 139 0 l 139 972 l 339 972 q 575 865 486 972 q 625 714 625 806 q 572 556 625 622 q 421 468 519 489 l 639 0 m 190 507 l 332 507 q 561 649 514 507 q 574 722 574 683 q 503 865 574 804 q 333 926 433 926 l 190 926 l 190 507 m 324 1117 l 449 1301 l 500 1301 l 369 1117 l 324 1117 z "},"ŕ":{"ha":460,"x_min":139,"x_max":408,"o":"m 139 519 l 185 519 l 190 381 q 276 488 219 447 q 408 531 333 528 l 407 485 q 261 428 321 482 q 190 290 201 374 l 190 0 l 139 0 l 139 519 m 142 665 l 267 850 l 318 850 l 188 665 l 142 665 z "},"Ŗ":{"ha":824,"x_min":139,"x_max":639,"o":"m 418 -61 l 299 -347 l 256 -347 l 363 -61 l 418 -61 m 639 0 l 586 0 l 371 461 l 190 461 l 190 0 l 139 0 l 139 972 l 339 972 q 575 865 486 972 q 625 714 625 806 q 572 556 625 622 q 421 468 519 489 l 639 0 m 190 507 l 332 507 q 561 649 514 507 q 574 722 574 683 q 503 865 574 804 q 333 926 433 926 l 190 926 l 190 507 z "},"ŗ":{"ha":460,"x_min":32,"x_max":408,"o":"m 194 -61 l 75 -347 l 32 -347 l 139 -61 l 194 -61 m 139 519 l 185 519 l 190 381 q 276 488 219 447 q 408 531 333 528 l 407 485 q 261 428 321 482 q 190 290 201 374 l 190 0 l 139 0 l 139 519 z "},"Ř":{"ha":824,"x_min":139,"x_max":639,"o":"m 639 0 l 586 0 l 371 461 l 190 461 l 190 0 l 139 0 l 139 972 l 339 972 q 575 865 486 972 q 625 714 625 806 q 572 556 625 622 q 421 468 519 489 l 639 0 m 190 507 l 332 507 q 561 649 514 507 q 574 722 574 683 q 503 865 574 804 q 333 926 433 926 l 190 926 l 190 507 m 529 1397 l 363 1146 l 196 1397 l 242 1397 l 363 1228 l 483 1397 l 529 1397 z "},"ř":{"ha":460,"x_min":108,"x_max":442,"o":"m 139 519 l 185 519 l 190 381 q 276 488 219 447 q 408 531 333 528 l 407 485 q 261 428 321 482 q 190 290 201 374 l 190 0 l 139 0 l 139 519 m 442 946 l 275 694 l 108 946 l 154 946 l 275 776 l 396 946 l 442 946 z "},"Ś":{"ha":788,"x_min":103,"x_max":672,"o":"m 590 894 l 558 853 q 382 928 479 928 q 235 871 285 928 q 186 735 186 814 q 229 615 186 657 q 350 544 272 572 l 397 529 q 543 471 511 492 q 600 428 575 450 q 639 383 625 407 q 672 258 672 326 q 588 63 672 138 q 379 -11 503 -11 q 103 115 225 -11 l 139 153 q 375 39 247 39 q 547 99 474 39 q 621 254 621 158 q 601 336 621 299 q 558 395 581 374 q 489 439 535 417 q 350 489 435 463 q 133 718 142 551 q 190 899 128 821 q 374 978 253 978 q 590 894 494 978 m 369 1117 l 494 1301 l 546 1301 l 415 1117 l 369 1117 z "},"ś":{"ha":554,"x_min":115,"x_max":442,"o":"m 418 468 l 392 432 q 344 465 378 449 q 275 482 310 482 q 212 460 240 482 q 183 396 183 438 q 203 335 183 354 q 263 303 224 317 q 325 280 301 290 q 378 250 349 269 q 439 149 439 213 q 397 37 439 85 q 275 -11 354 -11 q 115 54 167 -11 l 146 92 q 206 49 165 65 q 283 35 247 32 q 353 64 318 38 q 388 140 388 90 q 311 236 388 207 q 279 247 294 243 l 246 258 q 223 267 228 265 q 202 276 218 268 q 180 288 186 283 q 163 303 174 293 q 147 325 151 314 q 133 385 133 356 q 177 490 133 451 q 278 528 221 528 q 418 468 365 528 m 265 665 l 390 850 l 442 850 l 311 665 l 265 665 z "},"Ŝ":{"ha":788,"x_min":103,"x_max":672,"o":"m 590 894 l 558 853 q 382 928 479 928 q 235 871 285 928 q 186 735 186 814 q 229 615 186 657 q 350 544 272 572 l 397 529 q 543 471 511 492 q 600 428 575 450 q 639 383 625 407 q 672 258 672 326 q 588 63 672 138 q 379 -11 503 -11 q 103 115 225 -11 l 139 153 q 375 39 247 39 q 547 99 474 39 q 621 254 621 158 q 601 336 621 299 q 558 395 581 374 q 489 439 535 417 q 350 489 435 463 q 133 718 142 551 q 190 899 128 821 q 374 978 253 978 q 590 894 494 978 m 393 1368 l 560 1117 l 514 1117 l 393 1286 l 272 1117 l 226 1117 l 393 1368 z "},"ŝ":{"ha":554,"x_min":110,"x_max":443,"o":"m 418 468 l 392 432 q 344 465 378 449 q 275 482 310 482 q 212 460 240 482 q 183 396 183 438 q 203 335 183 354 q 263 303 224 317 q 325 280 301 290 q 378 250 349 269 q 439 149 439 213 q 397 37 439 85 q 275 -11 354 -11 q 115 54 167 -11 l 146 92 q 206 49 165 65 q 283 35 247 32 q 353 64 318 38 q 388 140 388 90 q 311 236 388 207 q 279 247 294 243 l 246 258 q 223 267 228 265 q 202 276 218 268 q 180 288 186 283 q 163 303 174 293 q 147 325 151 314 q 133 385 133 356 q 177 490 133 451 q 278 528 221 528 q 418 468 365 528 m 276 917 l 443 665 l 397 665 l 276 835 l 156 665 l 110 665 l 276 917 z "},"Ş":{"ha":788,"x_min":103,"x_max":672,"o":"m 590 894 l 558 853 q 382 928 479 928 q 235 870 285 928 q 186 739 186 813 q 224 619 186 665 q 350 544 263 574 q 417 524 390 535 l 472 503 q 517 483 504 490 q 556 461 517 483 q 594 433 582 446 q 625 401 607 421 q 651 361 643 381 q 672 261 672 313 q 604 78 672 150 q 426 -7 536 7 q 446 -58 426 -43 q 467 -71 453 -64 q 533 -190 533 -107 q 497 -292 533 -250 q 403 -335 460 -335 q 254 -235 289 -335 l 301 -224 q 335 -272 310 -253 q 398 -290 360 -290 q 463 -262 436 -290 q 490 -190 490 -233 q 456 -112 490 -146 q 427 -93 447 -106 q 400 -74 407 -81 q 375 -11 375 -51 q 103 115 224 -11 l 139 153 q 247 70 183 104 q 375 39 311 36 q 552 102 483 43 q 621 257 621 161 q 601 336 621 300 q 558 394 582 372 q 489 438 533 417 q 381 480 438 463 q 306 503 325 497 q 253 529 288 510 q 195 572 218 549 q 153 633 172 594 q 133 718 135 672 q 191 902 129 826 q 374 978 253 978 q 590 894 496 978 z "},"ş":{"ha":554,"x_min":115,"x_max":439,"o":"m 418 468 l 392 432 q 344 465 378 449 q 276 482 310 482 q 213 459 242 482 q 183 397 183 436 q 201 338 183 357 q 261 304 219 318 q 326 281 303 290 q 378 253 349 271 q 439 142 439 214 q 405 47 439 92 q 310 -8 371 1 l 310 -10 q 329 -58 310 -43 q 349 -71 336 -64 q 417 -190 417 -108 q 380 -292 417 -250 q 286 -335 343 -335 q 138 -235 172 -335 l 185 -224 q 218 -272 193 -253 q 281 -290 243 -290 q 347 -262 319 -290 q 374 -190 374 -233 q 339 -112 374 -146 l 311 -94 q 283 -72 290 -81 q 258 -10 258 -49 q 115 54 163 -4 l 146 92 q 203 50 165 67 q 278 35 242 33 q 351 63 314 36 q 388 139 388 89 q 347 217 388 192 q 292 243 321 235 l 228 265 q 190 281 197 275 q 172 295 183 288 q 156 311 161 303 l 144 331 q 133 383 133 350 q 177 490 133 453 q 282 528 221 528 q 352 513 313 528 q 418 468 392 499 z "},"Š":{"ha":788,"x_min":103,"x_max":672,"o":"m 590 894 l 558 853 q 382 928 479 928 q 235 871 285 928 q 186 735 186 814 q 229 615 186 657 q 350 544 272 572 l 397 529 q 543 471 511 492 q 600 428 575 450 q 639 383 625 407 q 672 258 672 326 q 588 63 672 138 q 379 -11 503 -11 q 103 115 225 -11 l 139 153 q 375 39 247 39 q 547 99 474 39 q 621 254 621 158 q 601 336 621 299 q 558 395 581 374 q 489 439 535 417 q 350 489 435 463 q 133 718 142 551 q 190 899 128 821 q 374 978 253 978 q 590 894 494 978 m 564 1397 l 397 1146 l 231 1397 l 276 1397 l 397 1228 l 518 1397 l 564 1397 z "},"š":{"ha":554,"x_min":110,"x_max":443,"o":"m 418 468 l 392 432 q 344 465 378 449 q 275 482 310 482 q 212 460 240 482 q 183 396 183 438 q 203 335 183 354 q 263 303 224 317 q 325 280 301 290 q 378 250 349 269 q 439 149 439 213 q 397 37 439 85 q 275 -11 354 -11 q 115 54 167 -11 l 146 92 q 206 49 165 65 q 283 35 247 32 q 353 64 318 38 q 388 140 388 90 q 311 236 388 207 q 279 247 294 243 l 246 258 q 223 267 228 265 q 202 276 218 268 q 180 288 186 283 q 163 303 174 293 q 147 325 151 314 q 133 385 133 356 q 177 490 133 451 q 278 528 221 528 q 418 468 365 528 m 443 917 l 276 665 l 110 917 l 156 917 l 276 747 l 397 917 l 443 917 z "},"Ţ":{"ha":768,"x_min":0,"x_max":768,"o":"m 414 -61 l 294 -347 l 251 -347 l 358 -61 l 414 -61 m 768 972 l 768 926 l 410 926 l 410 0 l 358 0 l 358 926 l 0 926 l 0 972 l 768 972 z "},"ţ":{"ha":417,"x_min":58,"x_max":360,"o":"m 271 -61 l 151 -347 l 108 -347 l 215 -61 l 271 -61 m 200 0 l 149 0 l 149 475 l 58 475 l 58 521 l 149 521 l 149 860 l 200 860 l 200 521 l 360 521 l 360 475 l 200 475 l 200 0 z "},"Ť":{"ha":768,"x_min":0,"x_max":768,"o":"m 768 972 l 768 926 l 410 926 l 410 0 l 358 0 l 358 926 l 0 926 l 0 972 l 768 972 m 551 1397 l 385 1146 l 218 1397 l 264 1397 l 385 1228 l 506 1397 l 551 1397 z "},"ť":{"ha":644,"x_min":58,"x_max":583,"o":"m 200 0 l 149 0 l 149 475 l 58 475 l 58 521 l 149 521 l 149 860 l 200 860 l 200 521 l 360 521 l 360 475 l 200 475 l 200 0 m 522 786 l 493 819 q 539 978 558 882 l 583 988 q 522 786 607 871 z "},"Ŧ":{"ha":768,"x_min":0,"x_max":768,"o":"m 543 694 l 410 694 l 410 0 l 358 0 l 358 694 l 224 694 l 224 740 l 358 740 l 358 926 l 0 926 l 0 972 l 768 972 l 768 926 l 410 926 l 410 740 l 543 740 l 543 694 z "},"ŧ":{"ha":417,"x_min":58,"x_max":360,"o":"m 149 972 l 200 972 l 200 717 l 354 717 l 354 671 l 200 671 l 200 521 l 360 521 l 360 475 l 200 475 l 200 89 q 247 47 200 47 l 324 47 l 324 0 l 231 0 q 149 83 150 0 l 149 475 l 58 475 l 58 521 l 149 521 l 149 671 l 58 671 l 58 717 l 149 717 l 149 972 z "},"Ũ":{"ha":906,"x_min":136,"x_max":774,"o":"m 774 314 q 684 74 774 160 q 453 -11 594 -11 q 224 74 313 -11 q 136 314 136 160 l 136 972 l 188 972 l 188 318 q 261 110 188 185 q 454 35 335 35 q 648 110 574 35 q 722 318 722 185 l 722 972 l 774 972 l 774 314 m 621 1188 q 590 1113 618 1138 q 523 1088 563 1088 q 443 1127 483 1088 q 382 1167 403 1167 q 322 1101 329 1167 l 283 1106 q 314 1181 286 1156 q 379 1206 342 1206 q 459 1166 417 1206 q 522 1126 501 1126 q 582 1192 575 1126 l 621 1188 z "},"ũ":{"ha":735,"x_min":139,"x_max":594,"o":"m 594 0 l 543 0 l 543 83 l 547 146 q 458 41 518 79 q 319 0 397 3 q 190 43 239 0 q 139 156 142 86 l 139 521 l 190 521 l 190 156 q 225 79 193 110 q 318 46 257 49 q 476 101 410 46 q 543 240 543 157 l 543 531 l 594 531 l 594 0 m 536 736 q 506 661 533 686 q 438 636 478 636 q 358 676 399 636 q 297 715 318 715 q 238 650 244 715 l 199 654 q 229 729 201 704 q 294 754 257 754 q 374 715 332 754 q 438 675 417 675 q 497 740 490 675 l 536 736 z "},"Ū":{"ha":906,"x_min":136,"x_max":774,"o":"m 774 314 q 684 74 774 160 q 453 -11 594 -11 q 224 74 313 -11 q 136 314 136 160 l 136 972 l 188 972 l 188 318 q 261 110 188 185 q 454 35 335 35 q 648 110 574 35 q 722 318 722 185 l 722 972 l 774 972 l 774 314 m 293 1122 l 293 1168 l 613 1168 l 613 1122 l 293 1122 z "},"ū":{"ha":735,"x_min":139,"x_max":594,"o":"m 594 0 l 543 0 l 543 83 l 547 146 q 458 41 518 79 q 319 0 397 3 q 190 43 239 0 q 139 156 142 86 l 139 521 l 190 521 l 190 156 q 225 79 193 110 q 318 46 257 49 q 476 101 410 46 q 543 240 543 157 l 543 531 l 594 531 l 594 0 m 207 671 l 207 717 l 526 717 l 526 671 l 207 671 z "},"Ŭ":{"ha":906,"x_min":136,"x_max":774,"o":"m 774 314 q 684 74 774 160 q 453 -11 594 -11 q 224 74 313 -11 q 136 314 136 160 l 136 972 l 188 972 l 188 318 q 261 110 188 185 q 454 35 335 35 q 648 110 574 35 q 722 318 722 185 l 722 972 l 774 972 l 774 314 m 612 1209 q 579 1177 612 1209 q 454 1146 546 1146 q 296 1209 363 1146 q 228 1364 229 1272 l 274 1364 q 326 1238 275 1286 q 455 1190 376 1190 q 583 1238 533 1190 q 633 1364 632 1285 l 678 1364 q 612 1209 678 1272 z "},"ŭ":{"ha":735,"x_min":139,"x_max":594,"o":"m 594 0 l 543 0 l 543 83 l 547 146 q 458 41 518 79 q 319 0 397 3 q 190 43 239 0 q 139 156 142 86 l 139 521 l 190 521 l 190 156 q 225 79 193 110 q 318 46 257 49 q 476 101 410 46 q 543 240 543 157 l 543 531 l 594 531 l 594 0 m 526 758 q 493 726 526 758 q 368 694 460 694 q 210 758 276 694 q 142 913 143 821 l 188 913 q 240 787 189 835 q 369 739 290 739 q 497 786 447 739 q 547 913 546 833 l 592 913 q 526 758 592 821 z "},"Ů":{"ha":906,"x_min":136,"x_max":774,"o":"m 774 314 q 684 74 774 160 q 453 -11 594 -11 q 224 74 313 -11 q 136 314 136 160 l 136 972 l 188 972 l 188 318 q 261 110 188 185 q 454 35 335 35 q 648 110 574 35 q 722 318 722 185 l 722 972 l 774 972 l 774 314 m 392 1136 q 378 1150 392 1136 q 364 1201 364 1164 q 392 1267 364 1239 q 457 1294 419 1294 q 522 1267 494 1294 q 550 1201 550 1239 q 522 1136 550 1164 q 457 1108 494 1108 q 392 1136 419 1108 m 418 1240 q 410 1233 418 1240 q 403 1201 403 1225 q 418 1163 403 1178 q 457 1147 433 1147 q 496 1163 481 1147 q 511 1201 511 1178 q 496 1240 511 1225 q 457 1256 481 1256 q 418 1240 433 1256 z "},"ů":{"ha":735,"x_min":139,"x_max":594,"o":"m 594 0 l 543 0 l 543 83 l 547 146 q 458 41 518 79 q 319 0 397 3 q 190 43 239 0 q 139 156 142 86 l 139 521 l 190 521 l 190 156 q 225 79 193 110 q 318 46 257 49 q 476 101 410 46 q 543 240 543 157 l 543 531 l 594 531 l 594 0 m 301 685 q 288 699 301 685 q 274 750 274 713 q 301 815 274 788 q 367 843 329 843 q 432 815 404 843 q 460 750 460 788 q 432 685 460 713 q 367 657 404 657 q 301 685 329 657 m 328 789 q 320 781 328 789 q 313 750 313 774 q 328 711 313 726 q 367 696 343 696 q 406 711 390 696 q 421 750 421 726 q 406 789 421 774 q 367 804 390 804 q 328 789 343 804 z "},"Ű":{"ha":906,"x_min":136,"x_max":774,"o":"m 774 314 q 684 74 774 160 q 453 -11 594 -11 q 224 74 313 -11 q 136 314 136 160 l 136 972 l 188 972 l 188 318 q 261 110 188 185 q 454 35 335 35 q 648 110 574 35 q 722 318 722 185 l 722 972 l 774 972 l 774 314 m 311 1117 l 436 1301 l 488 1301 l 357 1117 l 311 1117 m 546 1117 l 671 1301 l 722 1301 l 592 1117 l 546 1117 z "},"ű":{"ha":735,"x_min":139,"x_max":640,"o":"m 594 0 l 543 0 l 543 83 l 547 146 q 458 41 518 79 q 319 0 397 3 q 190 43 239 0 q 139 156 142 86 l 139 521 l 190 521 l 190 156 q 225 79 193 110 q 318 46 257 49 q 476 101 410 46 q 543 240 543 157 l 543 531 l 594 531 l 594 0 m 229 665 l 354 850 l 406 850 l 275 665 l 229 665 m 464 665 l 589 850 l 640 850 l 510 665 l 464 665 z "},"Ų":{"ha":906,"x_min":136,"x_max":774,"o":"m 454 -11 q 224 74 313 -11 q 136 314 136 160 l 136 972 l 188 972 l 188 318 q 261 110 188 185 q 454 35 335 35 q 648 110 574 35 q 722 318 722 185 l 722 972 l 774 972 l 774 314 q 706 98 774 181 q 525 -4 638 15 q 509 -49 524 -26 q 483 -81 494 -71 q 443 -112 472 -90 q 408 -190 408 -146 q 435 -262 408 -233 q 506 -290 463 -290 l 506 -335 q 402 -292 439 -335 q 365 -185 365 -250 q 415 -82 365 -119 q 433 -71 419 -79 q 456 -56 447 -62 q 483 -10 481 -37 q 454 -11 474 -11 z "},"ų":{"ha":735,"x_min":139,"x_max":664,"o":"m 139 521 l 190 521 l 190 156 q 225 79 193 110 q 318 46 257 49 q 469 101 407 46 q 543 240 532 156 l 543 531 l 594 531 l 594 76 q 602 53 596 60 q 626 47 608 47 l 664 47 l 664 0 l 610 0 q 565 11 578 0 q 503 -47 550 -11 q 468 -124 468 -81 q 495 -197 468 -168 q 565 -225 522 -225 l 565 -269 q 462 -227 499 -269 q 425 -119 425 -185 q 475 -17 425 -54 q 528 21 514 3 q 544 60 543 39 q 543 83 543 67 l 547 146 q 458 41 518 79 q 319 0 397 3 q 190 43 239 0 q 139 156 142 86 l 139 521 z "},"Ŵ":{"ha":1539,"x_min":75,"x_max":1453,"o":"m 1399 972 l 1453 972 l 1022 -44 l 776 535 l 764 576 l 751 535 l 506 -44 l 75 972 l 129 972 l 493 114 l 506 72 l 518 114 l 736 629 l 592 972 l 646 972 l 1010 114 l 1022 72 l 1035 114 l 1399 972 m 768 1368 l 935 1117 l 889 1117 l 768 1286 l 647 1117 l 601 1117 l 768 1368 z "},"ŵ":{"ha":1111,"x_min":75,"x_max":1013,"o":"m 733 72 l 958 521 l 1013 521 l 733 -32 l 543 343 l 354 -32 l 75 521 l 129 521 l 354 72 l 517 396 l 454 521 l 508 521 l 733 72 m 543 917 l 710 665 l 664 665 l 543 835 l 422 665 l 376 665 l 543 917 z "},"Ŷ":{"ha":886,"x_min":57,"x_max":825,"o":"m 468 365 l 467 0 l 417 0 l 417 365 l 57 972 l 108 972 l 425 443 l 442 406 l 443 406 l 458 443 l 774 972 l 825 972 l 468 365 m 443 1368 l 610 1117 l 564 1117 l 443 1286 l 322 1117 l 276 1117 l 443 1368 z "},"ŷ":{"ha":558,"x_min":71,"x_max":629,"o":"m 192 -347 l 139 -347 l 322 21 l 71 521 l 125 521 l 350 72 l 575 521 l 629 521 l 192 -347 m 279 917 l 446 665 l 400 665 l 279 835 l 158 665 l 113 665 l 279 917 z "},"Ÿ":{"ha":886,"x_min":57,"x_max":825,"o":"m 468 365 l 467 0 l 417 0 l 417 365 l 57 972 l 108 972 l 425 443 l 442 406 l 443 406 l 458 443 l 774 972 l 825 972 l 468 365 m 372 1155 q 372 1145 372 1155 q 359 1124 372 1136 q 328 1111 346 1111 q 298 1124 311 1111 q 285 1155 285 1136 q 299 1187 285 1174 q 329 1200 313 1200 q 359 1187 346 1200 q 372 1155 372 1174 m 601 1155 q 601 1145 601 1155 q 588 1124 601 1136 q 558 1111 575 1111 q 527 1124 540 1111 q 514 1155 514 1136 q 528 1187 514 1174 q 558 1200 542 1200 q 588 1187 575 1200 q 601 1155 601 1174 z "},"Ź":{"ha":972,"x_min":113,"x_max":889,"o":"m 201 972 l 849 972 l 849 926 l 178 46 l 889 46 l 889 0 l 113 0 l 113 46 l 783 926 l 196 926 q 131 939 150 926 q 113 989 113 951 l 113 1042 l 160 1042 l 160 1004 q 168 978 160 983 q 201 972 176 972 m 464 1117 l 589 1301 l 640 1301 l 510 1117 l 464 1117 z "},"ź":{"ha":626,"x_min":58,"x_max":556,"o":"m 147 521 l 556 521 l 556 475 l 124 46 l 556 46 l 556 0 l 58 0 l 58 46 l 490 475 l 142 475 q 77 488 96 475 q 58 538 58 500 l 58 590 l 106 590 l 106 553 q 114 526 106 532 q 147 521 122 521 m 306 665 l 431 850 l 482 850 l 351 665 l 306 665 z "},"Ż":{"ha":972,"x_min":113,"x_max":889,"o":"m 201 972 l 849 972 l 849 926 l 178 46 l 889 46 l 889 0 l 113 0 l 113 46 l 783 926 l 196 926 q 131 939 150 926 q 113 989 113 951 l 113 1042 l 160 1042 l 160 1004 q 168 978 160 983 q 201 972 176 972 m 556 1191 q 556 1182 556 1191 q 542 1160 556 1172 q 512 1147 529 1147 q 481 1160 494 1147 q 468 1191 468 1172 q 482 1223 468 1210 q 513 1236 496 1236 q 542 1223 529 1236 q 556 1191 556 1210 z "},"ż":{"ha":626,"x_min":58,"x_max":556,"o":"m 379 723 q 379 714 379 723 q 366 692 379 704 q 335 679 353 679 q 305 692 318 679 q 292 723 292 704 q 306 755 292 742 q 336 768 319 768 q 366 755 353 768 q 379 723 379 742 m 147 521 l 556 521 l 556 475 l 124 46 l 556 46 l 556 0 l 58 0 l 58 46 l 490 475 l 142 475 q 77 488 96 475 q 58 538 58 500 l 58 590 l 106 590 l 106 553 q 114 526 106 532 q 147 521 122 521 z "},"Ž":{"ha":972,"x_min":113,"x_max":889,"o":"m 658 1319 l 492 1068 l 325 1319 l 371 1319 l 492 1150 l 613 1319 l 658 1319 m 201 972 l 849 972 l 849 926 l 178 46 l 889 46 l 889 0 l 113 0 l 113 46 l 783 926 l 196 926 q 131 939 150 926 q 113 989 113 951 l 113 1042 l 160 1042 l 160 1004 q 168 978 160 983 q 201 972 176 972 z "},"ž":{"ha":626,"x_min":58,"x_max":556,"o":"m 147 521 l 556 521 l 556 475 l 124 46 l 556 46 l 556 0 l 58 0 l 58 46 l 490 475 l 142 475 q 77 488 96 475 q 58 538 58 500 l 58 590 l 106 590 l 106 553 q 114 526 106 532 q 147 521 122 521 m 482 917 l 315 665 l 149 917 l 194 917 l 315 747 l 436 917 l 482 917 z "},"ƒ":{"ha":390,"x_min":-97,"x_max":390,"o":"m 121 475 l 31 475 l 31 521 l 121 521 l 121 786 q 200 974 122 897 q 390 1050 278 1050 l 390 1006 q 235 943 296 1006 q 172 786 175 881 l 172 521 l 333 521 l 333 475 l 172 475 l 172 -86 q 93 -274 171 -197 q -97 -350 15 -350 l -97 -306 q 58 -243 -3 -306 q 121 -86 118 -181 l 121 475 z "},"Ș":{"ha":788,"x_min":103,"x_max":672,"o":"m 418 -61 l 299 -347 l 256 -347 l 363 -61 l 418 -61 m 590 894 l 558 853 q 382 928 479 928 q 235 871 285 928 q 186 735 186 814 q 229 615 186 657 q 350 544 272 572 l 397 529 q 543 471 511 492 q 600 428 575 450 q 639 383 625 407 q 672 258 672 326 q 588 63 672 138 q 379 -11 503 -11 q 103 115 225 -11 l 139 153 q 375 39 247 39 q 547 99 474 39 q 621 254 621 158 q 601 336 621 299 q 558 395 581 374 q 489 439 535 417 q 350 489 435 463 q 133 718 142 551 q 190 899 128 821 q 374 978 253 978 q 590 894 494 978 z "},"ș":{"ha":554,"x_min":115,"x_max":439,"o":"m 306 -61 l 186 -347 l 143 -347 l 250 -61 l 306 -61 m 418 468 l 392 432 q 344 465 378 449 q 275 482 310 482 q 212 460 240 482 q 183 396 183 438 q 203 335 183 354 q 263 303 224 317 q 325 280 301 290 q 378 250 349 269 q 439 149 439 213 q 397 37 439 85 q 275 -11 354 -11 q 115 54 167 -11 l 146 92 q 206 49 165 65 q 283 35 247 32 q 353 64 318 38 q 388 140 388 90 q 311 236 388 207 q 279 247 294 243 l 246 258 q 223 267 228 265 q 202 276 218 268 q 180 288 186 283 q 163 303 174 293 q 147 325 151 314 q 133 385 133 356 q 177 490 133 451 q 278 528 221 528 q 418 468 365 528 z "},"ˆ":{"ha":511,"x_min":93,"x_max":426,"o":"m 260 917 l 426 665 l 381 665 l 260 835 l 139 665 l 93 665 l 260 917 z "},"ˇ":{"ha":456,"x_min":61,"x_max":394,"o":"m 394 946 l 228 694 l 61 946 l 107 946 l 228 776 l 349 946 l 394 946 z "},"˘":{"ha":718,"x_min":139,"x_max":589,"o":"m 523 758 q 490 726 523 758 q 365 694 457 694 q 207 758 274 694 q 139 913 140 821 l 185 913 q 237 787 186 835 q 366 739 288 739 q 494 786 444 739 q 544 913 543 833 l 589 913 q 523 758 589 821 z "},"˙":{"ha":254,"x_min":89,"x_max":176,"o":"m 176 740 q 176 730 176 740 q 163 708 176 721 q 133 696 150 696 q 102 708 115 696 q 89 740 89 721 q 103 772 89 758 q 133 785 117 785 q 163 772 150 785 q 176 740 176 758 z "},"˚":{"ha":417,"x_min":125,"x_max":311,"o":"m 153 685 q 139 699 153 685 q 125 750 125 713 q 153 815 125 788 q 218 843 181 843 q 283 815 256 843 q 311 750 311 788 q 283 685 311 713 q 218 657 256 657 q 153 685 181 657 m 179 789 q 172 781 179 789 q 164 750 164 774 q 179 711 164 726 q 218 696 194 696 q 257 711 242 696 q 272 750 272 726 q 257 789 272 774 q 218 804 242 804 q 179 789 194 804 z "},"˛":{"ha":554,"x_min":147,"x_max":307,"o":"m 288 -290 l 288 -335 q 184 -292 221 -335 q 147 -185 147 -250 q 197 -82 147 -119 q 217 -70 201 -79 q 242 -54 232 -61 q 267 0 267 -35 l 307 0 q 293 -46 307 -24 q 266 -80 279 -68 q 225 -112 253 -92 q 190 -190 190 -146 q 217 -262 190 -233 q 288 -290 244 -290 z "},"˜":{"ha":536,"x_min":94,"x_max":432,"o":"m 432 736 q 401 661 429 686 q 334 636 374 636 q 254 676 294 636 q 193 715 214 715 q 133 650 140 715 l 94 654 q 125 729 97 704 q 190 754 153 754 q 270 715 228 754 q 333 675 313 675 q 393 740 386 675 l 432 736 z "},"˝":{"ha":631,"x_min":139,"x_max":550,"o":"m 139 665 l 264 850 l 315 850 l 185 665 l 139 665 m 374 665 l 499 850 l 550 850 l 419 665 l 374 665 z "},"Ω":{"ha":233,"x_min":74,"x_max":161,"o":"m 161 391 q 161 382 161 391 q 148 360 161 372 q 117 347 135 347 q 87 360 100 347 q 74 391 74 372 q 88 423 74 410 q 118 436 101 436 q 148 423 135 436 q 161 391 161 410 z "},"π":{"ha":233,"x_min":74,"x_max":161,"o":"m 161 391 q 161 382 161 391 q 148 360 161 372 q 117 347 135 347 q 87 360 100 347 q 74 391 74 372 q 88 423 74 410 q 118 436 101 436 q 148 423 135 436 q 161 391 161 410 z "},"–":{"ha":707,"x_min":139,"x_max":557,"o":"m 139 242 l 139 288 l 557 288 l 557 242 l 139 242 z "},"—":{"ha":972,"x_min":138,"x_max":835,"o":"m 138 242 l 138 288 l 835 288 l 835 242 l 138 242 z "},"‘":{"ha":228,"x_min":43,"x_max":133,"o":"m 133 819 l 104 786 q 43 988 19 871 l 88 978 q 133 819 68 882 z "},"’":{"ha":228,"x_min":76,"x_max":167,"o":"m 106 786 l 76 819 q 122 978 142 882 l 167 988 q 106 786 190 871 z "},"‚":{"ha":203,"x_min":28,"x_max":118,"o":"m 57 -83 l 28 -50 q 74 108 93 13 l 118 118 q 57 -83 142 1 z "},"“":{"ha":346,"x_min":43,"x_max":278,"o":"m 133 819 l 104 786 q 43 988 19 871 l 88 978 q 133 819 68 882 m 278 819 l 249 786 q 188 988 164 871 l 232 978 q 278 819 213 882 z "},"”":{"ha":344,"x_min":28,"x_max":263,"o":"m 201 786 l 172 819 q 218 978 238 882 l 263 988 q 201 786 286 871 m 57 786 l 28 819 q 74 978 93 882 l 118 988 q 57 786 142 871 z "},"„":{"ha":474,"x_min":28,"x_max":263,"o":"m 201 -83 l 172 -50 q 218 108 238 13 l 263 118 q 201 -83 286 1 m 57 -83 l 28 -50 q 74 108 93 13 l 118 118 q 57 -83 142 1 z "},"†":{"ha":415,"x_min":-1,"x_max":418,"o":"m -1 669 l -1 715 l 182 715 l 182 886 l 233 886 l 233 715 l 418 715 l 418 669 l 233 669 l 233 139 l 182 139 l 182 669 l -1 669 z "},"‡":{"ha":415,"x_min":-1,"x_max":418,"o":"m -1 669 l -1 715 l 182 715 l 182 886 l 233 886 l 233 715 l 418 715 l 418 669 l 233 669 l 233 561 l 418 561 l 418 515 l 233 515 l 233 139 l 182 139 l 182 515 l -1 515 l -1 561 l 182 561 l 182 669 l -1 669 z "},"•":{"ha":665,"x_min":199,"x_max":467,"o":"m 332 283 q 303 283 332 283 q 237 322 275 283 q 199 417 199 361 q 238 513 199 474 q 333 551 276 551 q 428 512 389 551 q 467 417 467 472 q 428 322 467 361 q 332 283 389 283 z "},"…":{"ha":679,"x_min":74,"x_max":614,"o":"m 161 42 q 161 33 161 42 q 148 11 161 24 q 117 -1 135 -1 q 87 11 100 -1 q 74 42 74 24 q 88 74 74 61 q 118 88 101 88 q 148 74 135 88 q 161 42 161 61 m 388 42 q 388 33 388 42 q 374 11 388 24 q 344 -1 361 -1 q 313 11 326 -1 q 300 42 300 24 q 314 74 300 61 q 344 88 328 88 q 374 74 361 88 q 388 42 388 61 m 614 42 q 614 33 614 42 q 601 11 614 24 q 570 -1 588 -1 q 540 11 553 -1 q 526 42 526 24 q 540 74 526 61 q 571 88 554 88 q 601 74 588 88 q 614 42 614 61 z "},"‰":{"ha":1388,"x_min":146,"x_max":1249,"o":"m 281 0 l 694 694 l 743 694 l 329 0 l 281 0 m 460 540 q 460 507 460 540 q 413 430 460 475 q 302 385 367 385 q 192 430 238 385 q 146 540 146 475 q 192 649 146 604 q 302 694 238 694 q 413 649 367 694 q 460 540 460 604 m 226 461 q 241 445 226 461 q 303 429 256 429 q 378 461 350 429 q 407 541 407 493 q 378 619 407 589 q 303 650 350 650 q 226 619 256 650 q 197 541 197 589 q 226 461 197 493 m 868 155 q 868 123 868 155 q 822 45 868 90 q 710 0 775 0 q 600 45 646 0 q 554 155 554 90 q 600 265 554 219 q 710 310 646 310 q 822 265 775 310 q 868 155 868 219 m 635 76 q 649 60 635 76 q 711 44 664 44 q 787 76 758 44 q 815 156 815 108 q 787 235 815 204 q 711 265 758 265 q 635 235 664 265 q 606 156 606 204 q 635 76 606 108 m 1249 155 q 1249 123 1249 155 q 1202 45 1249 90 q 1091 0 1156 0 q 981 45 1026 0 q 935 155 935 90 q 981 265 935 219 q 1091 310 1026 310 q 1202 265 1156 310 q 1249 155 1249 219 m 1015 76 q 1030 60 1015 76 q 1092 44 1044 44 q 1167 76 1139 44 q 1196 156 1196 108 q 1167 235 1196 204 q 1092 265 1139 265 q 1015 235 1044 265 q 986 156 986 204 q 1015 76 986 108 z "},"‹":{"ha":544,"x_min":163,"x_max":400,"o":"m 400 107 l 163 332 l 400 556 l 400 506 l 229 332 l 400 157 l 400 107 z "},"›":{"ha":544,"x_min":163,"x_max":400,"o":"m 400 332 l 163 107 l 163 157 l 333 332 l 163 506 l 163 556 l 400 332 z "},"⁄":{"ha":415,"x_min":-10,"x_max":425,"o":"m -10 -1 l 376 1047 l 425 1047 l 39 -1 l -10 -1 z "},"€":{"ha":833,"x_min":60,"x_max":751,"o":"m 668 399 l 668 354 l 224 354 q 335 126 249 215 q 528 35 421 36 q 719 111 636 35 l 751 74 q 530 -10 654 -11 q 301 91 406 -10 q 171 354 197 192 l 60 354 l 60 399 l 165 399 q 164 451 164 417 q 165 501 164 486 l 60 501 l 60 546 l 169 546 q 297 815 194 715 q 539 914 399 915 q 721 860 639 914 l 692 822 q 546 868 622 868 q 412 840 469 868 q 317 763 354 811 q 224 546 246 669 l 668 546 l 668 501 l 218 501 q 215 442 215 468 q 217 399 215 417 l 668 399 z "},"™":{"ha":1197,"x_min":140,"x_max":1018,"o":"m 492 999 l 492 964 l 335 964 l 335 556 l 294 556 l 294 964 l 140 964 l 140 999 l 492 999 m 1018 1022 l 1018 556 l 978 556 l 978 910 l 788 663 l 594 913 l 594 556 l 554 556 l 554 1022 l 788 721 l 1018 1022 z "},"∂":{"ha":233,"x_min":74,"x_max":161,"o":"m 161 391 q 161 382 161 391 q 148 360 161 372 q 117 347 135 347 q 87 360 100 347 q 74 391 74 372 q 88 423 74 410 q 118 436 101 436 q 148 423 135 436 q 161 391 161 410 z "},"∆":{"ha":233,"x_min":74,"x_max":161,"o":"m 161 391 q 161 382 161 391 q 148 360 161 372 q 117 347 135 347 q 87 360 100 347 q 74 391 74 372 q 88 423 74 410 q 118 436 101 436 q 148 423 135 436 q 161 391 161 410 z "},"∏":{"ha":233,"x_min":74,"x_max":161,"o":"m 161 391 q 161 382 161 391 q 148 360 161 372 q 117 347 135 347 q 87 360 100 347 q 74 391 74 372 q 88 423 74 410 q 118 436 101 436 q 148 423 135 436 q 161 391 161 410 z "},"∑":{"ha":233,"x_min":74,"x_max":161,"o":"m 161 391 q 161 382 161 391 q 148 360 161 372 q 117 347 135 347 q 87 360 100 347 q 74 391 74 372 q 88 423 74 410 q 118 436 101 436 q 148 423 135 436 q 161 391 161 410 z "},"−":{"ha":725,"x_min":119,"x_max":619,"o":"m 619 299 l 119 299 l 119 344 l 619 344 l 619 299 z "},"√":{"ha":233,"x_min":74,"x_max":161,"o":"m 161 391 q 161 382 161 391 q 148 360 161 372 q 117 347 135 347 q 87 360 100 347 q 74 391 74 372 q 88 423 74 410 q 118 436 101 436 q 148 423 135 436 q 161 391 161 410 z "},"∫":{"ha":233,"x_min":74,"x_max":161,"o":"m 161 391 q 161 382 161 391 q 148 360 161 372 q 117 347 135 347 q 87 360 100 347 q 74 391 74 372 q 88 423 74 410 q 118 436 101 436 q 148 423 135 436 q 161 391 161 410 z "},"≈":{"ha":233,"x_min":74,"x_max":161,"o":"m 161 391 q 161 382 161 391 q 148 360 161 372 q 117 347 135 347 q 87 360 100 347 q 74 391 74 372 q 88 423 74 410 q 118 436 101 436 q 148 423 135 436 q 161 391 161 410 z "},"≠":{"ha":983,"x_min":139,"x_max":842,"o":"m 842 239 l 842 194 l 450 194 l 386 18 l 338 18 l 403 194 l 139 194 l 139 239 l 419 239 l 501 464 l 139 464 l 139 508 l 518 508 l 582 682 l 631 682 l 567 508 l 842 508 l 842 464 l 550 464 l 467 239 l 842 239 z "},"≤":{"ha":833,"x_min":139,"x_max":746,"o":"m 746 313 l 746 263 l 139 613 l 746 963 l 746 913 l 226 613 l 746 313 m 692 129 l 192 129 l 192 175 l 692 175 l 692 129 z "},"≥":{"ha":833,"x_min":138,"x_max":744,"o":"m 138 263 l 138 313 l 657 613 l 138 913 l 138 963 l 744 613 l 138 263 m 690 129 l 190 129 l 190 175 l 690 175 l 690 129 z "},"◊":{"ha":233,"x_min":74,"x_max":161,"o":"m 161 391 q 161 382 161 391 q 148 360 161 372 q 117 347 135 347 q 87 360 100 347 q 74 391 74 372 q 88 423 74 410 q 118 436 101 436 q 148 423 135 436 q 161 391 161 410 z "},"ﬀ":{"ha":781,"x_min":31,"x_max":694,"o":"m 694 1050 l 694 1006 q 540 943 600 1006 q 476 786 479 881 l 476 521 l 638 521 l 638 475 l 476 475 l 476 0 l 425 0 l 425 475 l 172 475 l 172 0 l 121 0 l 121 475 l 31 475 l 31 521 l 121 521 l 121 786 q 200 974 122 897 q 390 1050 278 1050 l 390 1006 q 235 943 296 1006 q 172 786 175 881 l 172 521 l 425 521 l 425 786 q 504 974 426 897 q 694 1050 582 1050 z "},"ﬁ":{"ha":554,"x_min":31,"x_max":467,"o":"m 443 0 l 392 0 l 392 475 l 172 475 l 174 0 l 121 0 l 121 475 l 31 475 l 31 521 l 121 521 l 121 786 q 200 974 122 897 q 390 1050 278 1050 l 390 1006 q 235 943 296 1006 q 172 786 175 881 l 172 521 l 443 521 l 443 0 m 467 740 q 467 730 467 740 q 453 708 467 721 q 423 696 440 696 q 392 708 406 696 q 379 740 379 721 q 393 772 379 758 q 424 785 407 785 q 453 772 440 785 q 467 740 467 758 z "},"ﬂ":{"ha":607,"x_min":31,"x_max":543,"o":"m 543 0 l 493 0 l 493 1006 l 390 1006 q 235 943 296 1006 q 172 786 175 881 l 172 521 l 333 521 l 333 475 l 172 475 l 174 0 l 121 0 l 121 475 l 31 475 l 31 521 l 121 521 l 121 786 q 200 974 122 897 q 390 1050 278 1050 l 543 1050 l 543 0 z "},"ﬃ":{"ha":801,"x_min":32,"x_max":771,"o":"m 747 0 l 696 0 l 696 475 l 476 475 l 476 0 l 425 0 l 425 475 l 174 475 l 174 0 l 122 0 l 122 475 l 32 475 l 32 521 l 122 521 l 122 786 q 201 974 124 897 q 392 1050 279 1050 l 392 1006 q 237 943 297 1006 q 174 786 176 881 l 174 521 l 425 521 l 425 786 q 504 974 426 897 q 694 1050 582 1050 l 694 1006 q 540 943 600 1006 q 476 786 479 881 l 476 521 l 747 521 l 747 0 m 771 740 q 771 730 771 740 q 758 708 771 721 q 727 696 744 696 q 697 708 710 696 q 683 740 683 721 q 697 772 683 758 q 728 785 711 785 q 758 772 744 785 q 771 740 771 758 z "},"ﬄ":{"ha":903,"x_min":32,"x_max":847,"o":"m 847 0 l 797 0 l 797 1006 l 694 1006 q 540 943 600 1006 q 476 786 479 881 l 476 521 l 638 521 l 638 475 l 476 475 l 478 0 l 425 0 l 425 475 l 174 475 l 174 0 l 122 0 l 122 475 l 32 475 l 32 521 l 122 521 l 122 786 q 201 974 124 897 q 392 1050 279 1050 l 392 1006 q 237 943 297 1006 q 174 786 176 881 l 174 521 l 425 521 l 425 786 q 504 974 426 897 q 694 1050 582 1050 l 847 1050 l 847 0 z "}}}
